<svg xmlns="http://www.w3.org/2000/svg" xmlns:xlink="http://www.w3.org/1999/xlink" width="1366" zoomAndPan="magnify" viewBox="0 0 1024.5 576" height="768" preserveAspectRatio="xMidYMid meet" version="1.0"><defs><g/><clipPath id="192b40581c"><path d="M 85.566406 219.746094 L 938.570312 219.746094 L 938.570312 328.546875 L 85.566406 328.546875 Z M 85.566406 219.746094 " clip-rule="nonzero"/></clipPath><clipPath id="51a81bbecd"><path d="M 123.796875 219.746094 L 900.203125 219.746094 C 910.34375 219.746094 920.066406 223.773438 927.238281 230.941406 C 934.40625 238.113281 938.433594 247.835938 938.433594 257.976562 L 938.433594 290.316406 C 938.433594 300.457031 934.40625 310.179688 927.238281 317.351562 C 920.066406 324.519531 910.34375 328.546875 900.203125 328.546875 L 123.796875 328.546875 C 113.65625 328.546875 103.933594 324.519531 96.761719 317.351562 C 89.59375 310.179688 85.566406 300.457031 85.566406 290.316406 L 85.566406 257.976562 C 85.566406 247.835938 89.59375 238.113281 96.761719 230.941406 C 103.933594 223.773438 113.65625 219.746094 123.796875 219.746094 Z M 123.796875 219.746094 " clip-rule="nonzero"/></clipPath><clipPath id="c95d7506a7"><path d="M 113.527344 256.59375 L 133.871094 256.59375 L 133.871094 276.9375 L 113.527344 276.9375 Z M 113.527344 256.59375 " clip-rule="nonzero"/></clipPath><clipPath id="91235edfe7"><path d="M 123.699219 256.59375 C 118.082031 256.59375 113.527344 261.148438 113.527344 266.765625 C 113.527344 272.382812 118.082031 276.9375 123.699219 276.9375 C 129.316406 276.9375 133.871094 272.382812 133.871094 266.765625 C 133.871094 261.148438 129.316406 256.59375 123.699219 256.59375 Z M 123.699219 256.59375 " clip-rule="nonzero"/></clipPath><clipPath id="38ed1a1381"><path d="M 893.847656 256.59375 L 914.191406 256.59375 L 914.191406 276.9375 L 893.847656 276.9375 Z M 893.847656 256.59375 " clip-rule="nonzero"/></clipPath><clipPath id="29ddc96ca6"><path d="M 904.019531 256.59375 C 898.402344 256.59375 893.847656 261.148438 893.847656 266.765625 C 893.847656 272.382812 898.402344 276.9375 904.019531 276.9375 C 909.636719 276.9375 914.191406 272.382812 914.191406 266.765625 C 914.191406 261.148438 909.636719 256.59375 904.019531 256.59375 Z M 904.019531 256.59375 " clip-rule="nonzero"/></clipPath></defs><g clip-path="url(#192b40581c)"><g clip-path="url(#51a81bbecd)"><path fill="#364de8" d="M 85.566406 219.746094 L 938.570312 219.746094 L 938.570312 328.546875 L 85.566406 328.546875 Z M 85.566406 219.746094 " fill-opacity="1" fill-rule="nonzero"/></g></g><g clip-path="url(#c95d7506a7)"><g clip-path="url(#91235edfe7)"><path fill="#ffffff" d="M 113.527344 256.59375 L 133.871094 256.59375 L 133.871094 276.9375 L 113.527344 276.9375 Z M 113.527344 256.59375 " fill-opacity="1" fill-rule="nonzero"/></g></g><g fill="#ffffff" fill-opacity="1"><g transform="translate(187.625381, 285.698642)"><g><path d="M 10.96875 -13.40625 L 3.734375 -11.703125 L 2 -34.875 L 12.65625 -36.421875 Z M 7.328125 0 C 6.023438 0 4.925781 -0.453125 4.03125 -1.359375 C 3.132812 -2.273438 2.6875 -3.367188 2.6875 -4.640625 C 2.6875 -5.929688 3.132812 -7.023438 4.03125 -7.921875 C 4.925781 -8.816406 6.023438 -9.265625 7.328125 -9.265625 C 8.585938 -9.265625 9.671875 -8.816406 10.578125 -7.921875 C 11.492188 -7.023438 11.953125 -5.929688 11.953125 -4.640625 C 11.953125 -3.367188 11.492188 -2.273438 10.578125 -1.359375 C 9.671875 -0.453125 8.585938 0 7.328125 0 Z M 7.328125 0 "/></g></g></g><g fill="#ffffff" fill-opacity="1"><g transform="translate(204.364971, 285.698642)"><g><path d="M 11.0625 -32.734375 L 2.34375 -28.84375 L 2 -29 L 2.1875 -32.484375 L 5.328125 -33.140625 L 5.328125 -33.1875 C 5.265625 -33.21875 5.023438 -33.273438 4.609375 -33.359375 C 4.191406 -33.441406 3.765625 -33.628906 3.328125 -33.921875 C 2.898438 -34.222656 2.570312 -34.675781 2.34375 -35.28125 C 2.007812 -36.238281 2.140625 -37.300781 2.734375 -38.46875 C 3.335938 -39.632812 4.1875 -40.53125 5.28125 -41.15625 C 6.175781 -41.6875 7.046875 -41.96875 7.890625 -42 C 8.742188 -42.039062 9.457031 -41.925781 10.03125 -41.65625 C 10.613281 -41.382812 10.925781 -41.085938 10.96875 -40.765625 C 10.925781 -40.597656 10.820312 -40.304688 10.65625 -39.890625 C 10.5 -39.472656 10.316406 -39.039062 10.109375 -38.59375 C 9.910156 -38.144531 9.742188 -37.804688 9.609375 -37.578125 L 9.3125 -37.515625 C 8.71875 -38.117188 8.070312 -38.425781 7.375 -38.4375 C 6.675781 -38.457031 6.09375 -38.304688 5.625 -37.984375 C 5.164062 -37.671875 4.953125 -37.332031 4.984375 -36.96875 C 5.015625 -36.601562 5.257812 -36.351562 5.71875 -36.21875 C 6.1875 -36.09375 6.726562 -36.035156 7.34375 -36.046875 C 7.957031 -36.066406 8.484375 -36.09375 8.921875 -36.125 L 10.359375 -36.21875 C 10.722656 -36.289062 11.0625 -36.316406 11.375 -36.296875 C 11.695312 -36.285156 11.828125 -36.128906 11.765625 -35.828125 Z M 4.578125 0 L 3.984375 0 L 2.09375 -27.3125 L 11.65625 -30.4375 L 10.71875 -7.03125 Z M 4.578125 0 "/></g></g></g><g fill="#ffffff" fill-opacity="1"><g transform="translate(220.207836, 285.698642)"><g><path d="M 10.421875 0 C 7.828125 0 5.804688 -0.410156 4.359375 -1.234375 C 2.910156 -2.066406 2.125 -3.484375 2 -5.484375 L 4.4375 -9.0625 C 4.769531 -8.46875 5.234375 -8.0625 5.828125 -7.84375 C 6.429688 -7.632812 7.070312 -7.519531 7.75 -7.5 C 8.425781 -7.476562 9.015625 -7.46875 9.515625 -7.46875 C 10.546875 -7.46875 11.507812 -7.597656 12.40625 -7.859375 C 13.300781 -8.128906 13.988281 -8.546875 14.46875 -9.109375 C 14.957031 -9.679688 15.082031 -10.390625 14.84375 -11.234375 C 14.613281 -12.078125 13.898438 -13.082031 12.703125 -14.25 C 12.003906 -14.976562 11.207031 -15.65625 10.3125 -16.28125 C 9.414062 -16.914062 8.550781 -17.472656 7.71875 -17.953125 C 6.894531 -18.441406 6.195312 -18.769531 5.625 -18.9375 L 5.53125 -19.484375 L 10.65625 -27.109375 C 13.488281 -26.078125 15.578125 -24.476562 16.921875 -22.3125 C 18.265625 -20.15625 19.050781 -17.519531 19.28125 -14.40625 C 19.476562 -11.84375 19.898438 -10.03125 20.546875 -8.96875 C 21.203125 -7.90625 22.175781 -7.375 23.46875 -7.375 C 23.738281 -7.375 23.972656 -7.023438 24.171875 -6.328125 C 24.367188 -5.628906 24.46875 -4.75 24.46875 -3.6875 C 24.46875 -2.65625 24.367188 -1.78125 24.171875 -1.0625 C 23.972656 -0.351562 23.738281 0 23.46875 0 C 22.070312 0 20.890625 -0.289062 19.921875 -0.875 C 18.960938 -1.457031 18.25 -2.210938 17.78125 -3.140625 C 17.125 -2.210938 16.203125 -1.457031 15.015625 -0.875 C 13.835938 -0.289062 12.304688 0 10.421875 0 Z M 10.421875 0 "/></g></g></g><g fill="#ffffff" fill-opacity="1"><g transform="translate(245.765137, 285.698642)"><g><path d="M 0 0 C -0.226562 0 -0.453125 -0.351562 -0.671875 -1.0625 C -0.890625 -1.78125 -1 -2.65625 -1 -3.6875 C -1 -4.75 -0.890625 -5.628906 -0.671875 -6.328125 C -0.453125 -7.023438 -0.226562 -7.375 0 -7.375 C 0.363281 -7.375 0.816406 -7.5 1.359375 -7.75 C 1.910156 -8 2.382812 -8.4375 2.78125 -9.0625 C 3.1875 -9.695312 3.320312 -10.546875 3.1875 -11.609375 L 2.640625 -16.640625 L 11.265625 -19.9375 L 11.21875 -13.65625 C 11.21875 -12.09375 11.421875 -10.84375 11.828125 -9.90625 C 12.242188 -8.976562 12.757812 -8.320312 13.375 -7.9375 C 13.988281 -7.5625 14.5625 -7.375 15.09375 -7.375 C 15.363281 -7.375 15.597656 -7.023438 15.796875 -6.328125 C 15.992188 -5.628906 16.09375 -4.75 16.09375 -3.6875 C 16.09375 -2.65625 15.992188 -1.78125 15.796875 -1.0625 C 15.597656 -0.351562 15.363281 0 15.09375 0 C 14.0625 0 13.039062 -0.1875 12.03125 -0.5625 C 11.019531 -0.945312 10.128906 -1.4375 9.359375 -2.03125 C 8.597656 -2.632812 8.035156 -3.285156 7.671875 -3.984375 C 6.640625 -2.753906 5.566406 -1.78125 4.453125 -1.0625 C 3.347656 -0.351562 1.863281 0 0 0 Z M 7.46875 8.171875 C 6.507812 8.171875 5.671875 7.820312 4.953125 7.125 C 4.242188 6.425781 3.890625 5.597656 3.890625 4.640625 C 3.890625 3.640625 4.242188 2.789062 4.953125 2.09375 C 5.671875 1.394531 6.507812 1.046875 7.46875 1.046875 C 8.4375 1.046875 9.273438 1.394531 9.984375 2.09375 C 10.703125 2.789062 11.0625 3.640625 11.0625 4.640625 C 11.0625 5.597656 10.703125 6.425781 9.984375 7.125 C 9.273438 7.820312 8.4375 8.171875 7.46875 8.171875 Z M 7.46875 8.171875 "/></g></g></g><g fill="#ffffff" fill-opacity="1"><g transform="translate(262.953074, 285.698642)"><g><path d="M 6.875 -23.921875 C 5.914062 -23.921875 5.078125 -24.269531 4.359375 -24.96875 C 3.640625 -25.664062 3.28125 -26.492188 3.28125 -27.453125 C 3.28125 -28.453125 3.640625 -29.300781 4.359375 -30 C 5.078125 -30.695312 5.914062 -31.046875 6.875 -31.046875 C 7.84375 -31.046875 8.679688 -30.695312 9.390625 -30 C 10.109375 -29.300781 10.46875 -28.453125 10.46875 -27.453125 C 10.46875 -26.492188 10.109375 -25.664062 9.390625 -24.96875 C 8.679688 -24.269531 7.84375 -23.921875 6.875 -23.921875 Z M 0 0 C -0.226562 0 -0.453125 -0.351562 -0.671875 -1.0625 C -0.890625 -1.78125 -1 -2.65625 -1 -3.6875 C -1 -4.75 -0.890625 -5.628906 -0.671875 -6.328125 C -0.453125 -7.023438 -0.226562 -7.375 0 -7.375 C 0.363281 -7.375 0.800781 -7.503906 1.3125 -7.765625 C 1.832031 -8.035156 2.28125 -8.484375 2.65625 -9.109375 C 3.039062 -9.742188 3.203125 -10.609375 3.140625 -11.703125 L 2.640625 -20.421875 L 11.265625 -19.6875 L 11.21875 -13.65625 C 11.21875 -12.09375 11.421875 -10.84375 11.828125 -9.90625 C 12.242188 -8.976562 12.757812 -8.320312 13.375 -7.9375 C 13.988281 -7.5625 14.5625 -7.375 15.09375 -7.375 C 15.363281 -7.375 15.597656 -7.023438 15.796875 -6.328125 C 15.992188 -5.628906 16.09375 -4.75 16.09375 -3.6875 C 16.09375 -2.65625 15.992188 -1.78125 15.796875 -1.0625 C 15.597656 -0.351562 15.363281 0 15.09375 0 C 14.0625 0 13.039062 -0.1875 12.03125 -0.5625 C 11.019531 -0.945312 10.128906 -1.4375 9.359375 -2.03125 C 8.597656 -2.632812 8.035156 -3.285156 7.671875 -3.984375 C 6.640625 -2.753906 5.566406 -1.78125 4.453125 -1.0625 C 3.347656 -0.351562 1.863281 0 0 0 Z M 0 0 "/></g></g></g><g fill="#ffffff" fill-opacity="1"><g transform="translate(280.141014, 285.698642)"><g><path d="M 0 0 C -0.226562 0 -0.453125 -0.351562 -0.671875 -1.0625 C -0.890625 -1.78125 -1 -2.65625 -1 -3.6875 C -1 -4.75 -0.890625 -5.628906 -0.671875 -6.328125 C -0.453125 -7.023438 -0.226562 -7.375 0 -7.375 C 0.5625 -7.375 1.175781 -7.503906 1.84375 -7.765625 C 2.507812 -8.035156 3.070312 -8.492188 3.53125 -9.140625 C 4 -9.785156 4.179688 -10.640625 4.078125 -11.703125 L 2.1875 -37.171875 L 11.859375 -33.890625 L 11.21875 -12.40625 C 11.113281 -9.3125 10.546875 -6.859375 9.515625 -5.046875 C 8.484375 -3.242188 7.132812 -1.953125 5.46875 -1.171875 C 3.8125 -0.390625 1.988281 0 0 0 Z M 0 0 "/></g></g></g><g fill="#ffffff" fill-opacity="1"><g transform="translate(296.083523, 285.698642)"><g/></g></g><g fill="#ffffff" fill-opacity="1"><g transform="translate(307.143912, 285.698642)"><g><path d="M 18.6875 -16.75 L 18.34375 -11.265625 L 9.671875 -11.8125 L 9.96875 -15.140625 C 8.4375 -15.546875 7.070312 -16.238281 5.875 -17.21875 C 4.675781 -18.195312 3.726562 -19.398438 3.03125 -20.828125 C 2.34375 -22.253906 2 -23.78125 2 -25.40625 C 2 -27.375 2.476562 -29.15625 3.4375 -30.75 C 4.40625 -32.34375 5.691406 -33.617188 7.296875 -34.578125 C 8.910156 -35.546875 10.679688 -36.03125 12.609375 -36.03125 C 14.929688 -36.03125 17 -35.351562 18.8125 -34 C 20.625 -32.65625 21.894531 -30.9375 22.625 -28.84375 L 19.234375 -26.5625 C 19.003906 -27.351562 18.539062 -28.015625 17.84375 -28.546875 C 17.144531 -29.078125 16.363281 -29.34375 15.5 -29.34375 C 14.40625 -29.34375 13.46875 -28.953125 12.6875 -28.171875 C 11.90625 -27.390625 11.515625 -26.453125 11.515625 -25.359375 C 11.515625 -24.296875 11.882812 -23.320312 12.625 -22.4375 C 13.375 -21.5625 14.53125 -21.09375 16.09375 -21.03125 Z M 13.90625 0 C 12.675781 0 11.59375 -0.453125 10.65625 -1.359375 C 9.726562 -2.273438 9.265625 -3.367188 9.265625 -4.640625 C 9.265625 -5.929688 9.726562 -7.023438 10.65625 -7.921875 C 11.59375 -8.816406 12.675781 -9.265625 13.90625 -9.265625 C 15.195312 -9.265625 16.289062 -8.816406 17.1875 -7.921875 C 18.082031 -7.023438 18.53125 -5.929688 18.53125 -4.640625 C 18.53125 -3.367188 18.082031 -2.273438 17.1875 -1.359375 C 16.289062 -0.453125 15.195312 0 13.90625 0 Z M 13.90625 0 "/></g></g></g><g fill="#ffffff" fill-opacity="1"><g transform="translate(333.847025, 285.698642)"><g><path d="M 13.65625 0 C 11.257812 0 9.1875 -0.378906 7.4375 -1.140625 C 5.695312 -1.910156 4.351562 -2.929688 3.40625 -4.203125 C 2.46875 -5.484375 2 -6.890625 2 -8.421875 C 2 -9.785156 2.335938 -11.046875 3.015625 -12.203125 C 3.691406 -13.367188 4.5625 -14.332031 5.625 -15.09375 L 8.625 -12.3125 C 8.351562 -12.039062 8.078125 -11.6875 7.796875 -11.25 C 7.515625 -10.820312 7.390625 -10.378906 7.421875 -9.921875 C 7.453125 -9.390625 7.617188 -8.9375 7.921875 -8.5625 C 8.222656 -8.195312 8.867188 -7.921875 9.859375 -7.734375 C 10.859375 -7.554688 12.421875 -7.46875 14.546875 -7.46875 C 14.941406 -7.46875 15.515625 -7.492188 16.265625 -7.546875 C 17.015625 -7.597656 17.78125 -7.75 18.5625 -8 C 19.34375 -8.25 20 -8.660156 20.53125 -9.234375 C 21.0625 -9.816406 21.328125 -10.640625 21.328125 -11.703125 L 19.6875 -32.890625 L 29.296875 -36.125 L 28.453125 -13.90625 C 28.390625 -12.207031 28.597656 -10.882812 29.078125 -9.9375 C 29.554688 -8.988281 30.117188 -8.320312 30.765625 -7.9375 C 31.410156 -7.5625 31.914062 -7.375 32.28125 -7.375 C 32.550781 -7.375 32.785156 -7.023438 32.984375 -6.328125 C 33.179688 -5.628906 33.28125 -4.75 33.28125 -3.6875 C 33.28125 -2.65625 33.179688 -1.78125 32.984375 -1.0625 C 32.785156 -0.351562 32.550781 0 32.28125 0 C 30.65625 0 29.269531 -0.394531 28.125 -1.1875 C 26.976562 -1.988281 26.125 -2.890625 25.5625 -3.890625 C 24.5 -2.660156 23.046875 -1.703125 21.203125 -1.015625 C 19.359375 -0.335938 16.84375 0 13.65625 0 Z M 18.734375 -14.5 L 10.015625 -10.609375 L 9.671875 -10.765625 L 9.859375 -14.25 L 13 -14.90625 L 13 -14.953125 C 12.375 -15.015625 11.773438 -15.21875 11.203125 -15.5625 C 10.640625 -15.914062 10.242188 -16.410156 10.015625 -17.046875 C 9.679688 -18.003906 9.8125 -19.0625 10.40625 -20.21875 C 11.007812 -21.382812 11.859375 -22.285156 12.953125 -22.921875 C 13.847656 -23.453125 14.71875 -23.734375 15.5625 -23.765625 C 16.414062 -23.796875 17.128906 -23.675781 17.703125 -23.40625 C 18.285156 -23.144531 18.597656 -22.847656 18.640625 -22.515625 C 18.597656 -22.347656 18.492188 -22.054688 18.328125 -21.640625 C 18.171875 -21.234375 17.988281 -20.804688 17.78125 -20.359375 C 17.582031 -19.910156 17.421875 -19.566406 17.296875 -19.328125 L 16.984375 -19.28125 C 16.390625 -19.882812 15.742188 -20.191406 15.046875 -20.203125 C 14.347656 -20.222656 13.765625 -20.070312 13.296875 -19.75 C 12.835938 -19.4375 12.625 -19.097656 12.65625 -18.734375 C 12.6875 -18.367188 12.929688 -18.128906 13.390625 -18.015625 C 13.859375 -17.898438 14.398438 -17.84375 15.015625 -17.84375 C 15.628906 -17.84375 16.15625 -17.859375 16.59375 -17.890625 L 18.03125 -17.984375 C 18.394531 -18.054688 18.734375 -18.082031 19.046875 -18.0625 C 19.367188 -18.039062 19.5 -17.882812 19.4375 -17.59375 Z M 18.734375 -14.5 "/></g></g></g><g fill="#ffffff" fill-opacity="1"><g transform="translate(368.22204, 285.698642)"><g><path d="M 3.59375 -24.46875 C 2.65625 -24.46875 1.863281 -24.796875 1.21875 -25.453125 C 0.570312 -26.117188 0.25 -26.898438 0.25 -27.796875 C 0.25 -28.765625 0.570312 -29.582031 1.21875 -30.25 C 1.863281 -30.914062 2.65625 -31.25 3.59375 -31.25 C 4.289062 -31.25 4.921875 -31.054688 5.484375 -30.671875 C 6.046875 -30.285156 6.441406 -29.796875 6.671875 -29.203125 C 6.941406 -29.796875 7.359375 -30.285156 7.921875 -30.671875 C 8.484375 -31.054688 9.082031 -31.25 9.71875 -31.25 C 10.675781 -31.25 11.488281 -30.914062 12.15625 -30.25 C 12.820312 -29.582031 13.15625 -28.765625 13.15625 -27.796875 C 13.15625 -26.898438 12.820312 -26.117188 12.15625 -25.453125 C 11.488281 -24.796875 10.675781 -24.46875 9.71875 -24.46875 C 9.082031 -24.46875 8.484375 -24.65625 7.921875 -25.03125 C 7.359375 -25.414062 6.941406 -25.910156 6.671875 -26.515625 C 6.441406 -25.910156 6.046875 -25.414062 5.484375 -25.03125 C 4.921875 -24.65625 4.289062 -24.46875 3.59375 -24.46875 Z M 0 0 C -0.226562 0 -0.453125 -0.351562 -0.671875 -1.0625 C -0.890625 -1.78125 -1 -2.65625 -1 -3.6875 C -1 -4.75 -0.890625 -5.628906 -0.671875 -6.328125 C -0.453125 -7.023438 -0.226562 -7.375 0 -7.375 C 0.5625 -7.375 1.132812 -7.503906 1.71875 -7.765625 C 2.300781 -8.035156 2.78125 -8.484375 3.15625 -9.109375 C 3.539062 -9.742188 3.703125 -10.609375 3.640625 -11.703125 L 2.546875 -21.46875 L 11.765625 -23.171875 L 11.703125 -10.46875 C 11.703125 -8.40625 11.179688 -6.582031 10.140625 -5 C 9.097656 -3.425781 7.691406 -2.195312 5.921875 -1.3125 C 4.160156 -0.4375 2.1875 0 0 0 Z M 0 0 "/></g></g></g><g fill="#ffffff" fill-opacity="1"><g transform="translate(384.064909, 285.698642)"><g><path d="M 15.09375 0 C 12.769531 0 10.769531 -0.390625 9.09375 -1.171875 C 7.414062 -1.953125 6.109375 -3.242188 5.171875 -5.046875 C 4.242188 -6.859375 3.734375 -9.3125 3.640625 -12.40625 L 2 -33.734375 L 11.65625 -37.125 L 10.90625 -13.90625 C 10.84375 -12.238281 11 -10.929688 11.375 -9.984375 C 11.757812 -9.046875 12.285156 -8.375 12.953125 -7.96875 C 13.617188 -7.570312 14.332031 -7.375 15.09375 -7.375 C 15.363281 -7.375 15.597656 -7.023438 15.796875 -6.328125 C 15.992188 -5.628906 16.09375 -4.75 16.09375 -3.6875 C 16.09375 -2.65625 15.992188 -1.78125 15.796875 -1.0625 C 15.597656 -0.351562 15.363281 0 15.09375 0 Z M 15.09375 0 "/></g></g></g><g fill="#ffffff" fill-opacity="1"><g transform="translate(401.25285, 285.698642)"><g><path d="M 15.890625 0.640625 C 14.160156 0.878906 12.488281 0.75 10.875 0.25 C 9.269531 -0.25 7.867188 -1.0625 6.671875 -2.1875 C 5.847656 -1.394531 4.878906 -0.832031 3.765625 -0.5 C 2.648438 -0.164062 1.394531 0 0 0 C -0.226562 0 -0.453125 -0.351562 -0.671875 -1.0625 C -0.890625 -1.78125 -1 -2.65625 -1 -3.6875 C -1 -4.75 -0.890625 -5.628906 -0.671875 -6.328125 C -0.453125 -7.023438 -0.226562 -7.375 0 -7.375 C 0.832031 -7.375 1.535156 -7.765625 2.109375 -8.546875 C 2.691406 -9.328125 2.984375 -10.628906 2.984375 -12.453125 C 2.984375 -14.285156 3.390625 -15.988281 4.203125 -17.5625 C 5.023438 -19.144531 6.15625 -20.46875 7.59375 -21.53125 C 9.039062 -22.59375 10.695312 -23.253906 12.5625 -23.515625 C 14.78125 -23.847656 16.785156 -23.585938 18.578125 -22.734375 C 20.378906 -21.890625 21.875 -20.628906 23.0625 -18.953125 C 24.257812 -17.273438 25.007812 -15.328125 25.3125 -13.109375 C 25.507812 -11.578125 25.46875 -10.054688 25.1875 -8.546875 C 24.90625 -7.035156 24.375 -5.625 23.59375 -4.3125 C 22.8125 -3 21.78125 -1.898438 20.5 -1.015625 C 19.21875 -0.140625 17.679688 0.410156 15.890625 0.640625 Z M 12.90625 -7.46875 C 13.96875 -7.632812 14.8125 -8.15625 15.4375 -9.03125 C 16.070312 -9.914062 16.304688 -10.875 16.140625 -11.90625 C 15.972656 -12.96875 15.457031 -13.820312 14.59375 -14.46875 C 13.726562 -15.125 12.765625 -15.367188 11.703125 -15.203125 C 10.679688 -15.035156 9.84375 -14.519531 9.1875 -13.65625 C 8.539062 -12.789062 8.300781 -11.828125 8.46875 -10.765625 C 8.632812 -9.703125 9.148438 -8.851562 10.015625 -8.21875 C 10.878906 -7.59375 11.84375 -7.34375 12.90625 -7.46875 Z M 12.90625 -7.46875 "/></g></g></g><g fill="#ffffff" fill-opacity="1"><g transform="translate(430.795566, 285.698642)"><g><path d="M 12.109375 9.765625 L 6.921875 3.34375 L 6.921875 2.4375 C 7.222656 2.40625 7.769531 2.320312 8.5625 2.1875 C 9.363281 2.0625 10.21875 1.878906 11.125 1.640625 C 12.039062 1.410156 12.875 1.113281 13.625 0.75 C 14.375 0.382812 14.863281 -0.0625 15.09375 -0.59375 L 15.09375 -0.703125 C 10.675781 -1.460938 7.390625 -2.8125 5.234375 -4.75 C 3.078125 -6.695312 2 -9.53125 2 -13.25 C 2 -14.75 2.269531 -16.195312 2.8125 -17.59375 C 3.363281 -18.988281 4.128906 -20.238281 5.109375 -21.34375 C 6.085938 -22.457031 7.222656 -23.335938 8.515625 -23.984375 C 9.816406 -24.640625 11.210938 -24.96875 12.703125 -24.96875 C 14.703125 -24.96875 16.570312 -24.476562 18.3125 -23.5 C 20.050781 -22.519531 21.460938 -21.023438 22.546875 -19.015625 C 23.628906 -17.003906 24.171875 -14.421875 24.171875 -11.265625 C 24.171875 -10.859375 24.171875 -10.28125 24.171875 -9.53125 C 24.171875 -8.789062 24.132812 -8.203125 24.0625 -7.765625 C 24.5625 -7.640625 25.039062 -7.539062 25.5 -7.46875 C 25.96875 -7.40625 26.46875 -7.375 27 -7.375 C 27.269531 -7.375 27.503906 -7.023438 27.703125 -6.328125 C 27.898438 -5.628906 28 -4.75 28 -3.6875 C 28 -2.65625 27.898438 -1.78125 27.703125 -1.0625 C 27.503906 -0.351562 27.269531 0 27 0 C 26.238281 0 25.484375 -0.00390625 24.734375 -0.015625 C 23.992188 -0.0351562 23.253906 -0.0625 22.515625 -0.09375 C 21.421875 2.425781 19.953125 4.597656 18.109375 6.421875 C 16.265625 8.253906 14.265625 9.367188 12.109375 9.765625 Z M 14.203125 -8.921875 C 15.203125 -8.921875 16.054688 -9.269531 16.765625 -9.96875 C 17.484375 -10.664062 17.84375 -11.507812 17.84375 -12.5 C 17.84375 -13.53125 17.484375 -14.394531 16.765625 -15.09375 C 16.054688 -15.789062 15.203125 -16.140625 14.203125 -16.140625 C 13.203125 -16.140625 12.351562 -15.789062 11.65625 -15.09375 C 10.957031 -14.394531 10.609375 -13.53125 10.609375 -12.5 C 10.609375 -11.507812 10.957031 -10.664062 11.65625 -9.96875 C 12.351562 -9.269531 13.203125 -8.921875 14.203125 -8.921875 Z M 14.203125 -8.921875 "/></g></g></g><g fill="#ffffff" fill-opacity="1"><g transform="translate(459.889919, 285.698642)"><g><path d="M 0 0 C -0.226562 0 -0.453125 -0.351562 -0.671875 -1.0625 C -0.890625 -1.78125 -1 -2.65625 -1 -3.6875 C -1 -4.75 -0.890625 -5.628906 -0.671875 -6.328125 C -0.453125 -7.023438 -0.226562 -7.375 0 -7.375 C 1.09375 -7.375 2.085938 -7.726562 2.984375 -8.4375 C 3.878906 -9.15625 4.242188 -10.242188 4.078125 -11.703125 L 1.6875 -32.9375 L 11.359375 -34.875 L 11.21875 -13.953125 C 11.21875 -12.160156 11.363281 -10.789062 11.65625 -9.84375 C 11.957031 -8.894531 12.429688 -8.242188 13.078125 -7.890625 C 13.722656 -7.546875 14.53125 -7.375 15.5 -7.375 C 15.757812 -7.375 15.988281 -7.023438 16.1875 -6.328125 C 16.394531 -5.628906 16.5 -4.75 16.5 -3.6875 C 16.5 -2.65625 16.394531 -1.78125 16.1875 -1.0625 C 15.988281 -0.351562 15.757812 0 15.5 0 C 14.601562 0 13.671875 -0.144531 12.703125 -0.4375 C 11.742188 -0.738281 10.875 -1.128906 10.09375 -1.609375 C 9.3125 -2.097656 8.722656 -2.625 8.328125 -3.1875 C 7.421875 -1.894531 6.257812 -1.039062 4.84375 -0.625 C 3.4375 -0.207031 1.820312 0 0 0 Z M 0 0 "/></g></g></g><g fill="#ffffff" fill-opacity="1"><g transform="translate(477.476403, 285.698642)"><g><path d="M 0 0 C -0.226562 0 -0.453125 -0.351562 -0.671875 -1.0625 C -0.890625 -1.78125 -1 -2.65625 -1 -3.6875 C -1 -4.75 -0.890625 -5.628906 -0.671875 -6.328125 C -0.453125 -7.023438 -0.226562 -7.375 0 -7.375 C 0.832031 -7.375 1.882812 -7.472656 3.15625 -7.671875 C 4.4375 -7.867188 5.820312 -8.164062 7.3125 -8.5625 C 8.8125 -8.96875 10.242188 -9.453125 11.609375 -10.015625 C 10.179688 -11.378906 8.753906 -12.59375 7.328125 -13.65625 C 5.898438 -14.71875 4.40625 -15.363281 2.84375 -15.59375 L 0.5 -23.515625 C 0.757812 -23.546875 1.351562 -23.628906 2.28125 -23.765625 C 3.21875 -23.898438 4.375 -24.039062 5.75 -24.1875 C 7.132812 -24.34375 8.601562 -24.492188 10.15625 -24.640625 C 11.71875 -24.785156 13.242188 -24.890625 14.734375 -24.953125 C 16.234375 -25.023438 17.566406 -25.03125 18.734375 -24.96875 C 19.660156 -24.925781 20.601562 -24.835938 21.5625 -24.703125 C 22.53125 -24.578125 23.421875 -24.347656 24.234375 -24.015625 C 25.054688 -23.679688 25.710938 -23.179688 26.203125 -22.515625 C 26.703125 -21.859375 26.953125 -20.945312 26.953125 -19.78125 C 26.953125 -17.757812 26.507812 -15.859375 25.625 -14.078125 C 24.75 -12.296875 23.582031 -10.675781 22.125 -9.21875 C 23.25 -8.6875 24.398438 -8.242188 25.578125 -7.890625 C 26.765625 -7.546875 27.972656 -7.375 29.203125 -7.375 C 29.460938 -7.375 29.691406 -7.023438 29.890625 -6.328125 C 30.097656 -5.628906 30.203125 -4.75 30.203125 -3.6875 C 30.203125 -2.65625 30.097656 -1.78125 29.890625 -1.0625 C 29.691406 -0.351562 29.460938 0 29.203125 0 C 26.671875 0 24.410156 -0.503906 22.421875 -1.515625 C 20.429688 -2.535156 18.570312 -3.757812 16.84375 -5.1875 C 15.007812 -4.082031 13.078125 -3.140625 11.046875 -2.359375 C 9.023438 -1.585938 7.0625 -1 5.15625 -0.59375 C 3.25 -0.195312 1.53125 0 0 0 Z M 16.5 -13 C 17.0625 -13.570312 17.546875 -14.238281 17.953125 -15 C 18.367188 -15.757812 18.460938 -16.539062 18.234375 -17.34375 C 18.203125 -17.507812 18.023438 -17.691406 17.703125 -17.890625 C 17.390625 -18.085938 16.90625 -18.15625 16.25 -18.09375 L 11.90625 -17.34375 C 12.601562 -16.613281 13.332031 -15.878906 14.09375 -15.140625 C 14.863281 -14.410156 15.664062 -13.695312 16.5 -13 Z M 16.5 -13 "/></g></g></g><g fill="#ffffff" fill-opacity="1"><g transform="translate(508.762716, 285.698642)"><g><path d="M 15.890625 0.640625 C 14.160156 0.878906 12.488281 0.75 10.875 0.25 C 9.269531 -0.25 7.867188 -1.0625 6.671875 -2.1875 C 5.847656 -1.394531 4.878906 -0.832031 3.765625 -0.5 C 2.648438 -0.164062 1.394531 0 0 0 C -0.226562 0 -0.453125 -0.351562 -0.671875 -1.0625 C -0.890625 -1.78125 -1 -2.65625 -1 -3.6875 C -1 -4.75 -0.890625 -5.628906 -0.671875 -6.328125 C -0.453125 -7.023438 -0.226562 -7.375 0 -7.375 C 0.832031 -7.375 1.535156 -7.765625 2.109375 -8.546875 C 2.691406 -9.328125 2.984375 -10.628906 2.984375 -12.453125 C 2.984375 -14.285156 3.390625 -15.988281 4.203125 -17.5625 C 5.023438 -19.144531 6.15625 -20.46875 7.59375 -21.53125 C 9.039062 -22.59375 10.695312 -23.253906 12.5625 -23.515625 C 14.78125 -23.847656 16.785156 -23.585938 18.578125 -22.734375 C 20.378906 -21.890625 21.875 -20.628906 23.0625 -18.953125 C 24.257812 -17.273438 25.007812 -15.328125 25.3125 -13.109375 C 25.507812 -11.578125 25.46875 -10.054688 25.1875 -8.546875 C 24.90625 -7.035156 24.375 -5.625 23.59375 -4.3125 C 22.8125 -3 21.78125 -1.898438 20.5 -1.015625 C 19.21875 -0.140625 17.679688 0.410156 15.890625 0.640625 Z M 12.90625 -7.46875 C 13.96875 -7.632812 14.8125 -8.15625 15.4375 -9.03125 C 16.070312 -9.914062 16.304688 -10.875 16.140625 -11.90625 C 15.972656 -12.96875 15.457031 -13.820312 14.59375 -14.46875 C 13.726562 -15.125 12.765625 -15.367188 11.703125 -15.203125 C 10.679688 -15.035156 9.84375 -14.519531 9.1875 -13.65625 C 8.539062 -12.789062 8.300781 -11.828125 8.46875 -10.765625 C 8.632812 -9.703125 9.148438 -8.851562 10.015625 -8.21875 C 10.878906 -7.59375 11.84375 -7.34375 12.90625 -7.46875 Z M 12.90625 -7.46875 "/></g></g></g><g fill="#ffffff" fill-opacity="1"><g transform="translate(538.305416, 285.698642)"><g/></g></g><g fill="#ffffff" fill-opacity="1"><g transform="translate(549.365805, 285.698642)"><g><path d="M 4.78125 9.375 L 0 2.84375 L 0 2.046875 C 1.09375 2.046875 2.253906 1.769531 3.484375 1.21875 C 4.710938 0.675781 5.828125 -0.09375 6.828125 -1.09375 C 7.828125 -2.09375 8.53125 -3.253906 8.9375 -4.578125 C 9.351562 -5.910156 9.3125 -7.359375 8.8125 -8.921875 L 5.125 -20.078125 L 15.296875 -23.875 L 15.09375 -6.671875 C 15.0625 -4.148438 14.5625 -1.769531 13.59375 0.46875 C 12.632812 2.71875 11.382812 4.617188 9.84375 6.171875 C 8.300781 7.734375 6.613281 8.800781 4.78125 9.375 Z M 4.78125 9.375 "/></g></g></g><g fill="#ffffff" fill-opacity="1"><g transform="translate(568.745706, 285.698642)"><g><path d="M 15.09375 0 C 12.769531 0 10.769531 -0.390625 9.09375 -1.171875 C 7.414062 -1.953125 6.109375 -3.242188 5.171875 -5.046875 C 4.242188 -6.859375 3.734375 -9.3125 3.640625 -12.40625 L 2 -33.734375 L 11.65625 -37.125 L 10.90625 -13.90625 C 10.84375 -12.238281 11 -10.929688 11.375 -9.984375 C 11.757812 -9.046875 12.285156 -8.375 12.953125 -7.96875 C 13.617188 -7.570312 14.332031 -7.375 15.09375 -7.375 C 15.363281 -7.375 15.597656 -7.023438 15.796875 -6.328125 C 15.992188 -5.628906 16.09375 -4.75 16.09375 -3.6875 C 16.09375 -2.65625 15.992188 -1.78125 15.796875 -1.0625 C 15.597656 -0.351562 15.363281 0 15.09375 0 Z M 15.09375 0 "/></g></g></g><g fill="#ffffff" fill-opacity="1"><g transform="translate(585.93363, 285.698642)"><g><path d="M 0 0 C -0.226562 0 -0.453125 -0.351562 -0.671875 -1.0625 C -0.890625 -1.78125 -1 -2.65625 -1 -3.6875 C -1 -4.75 -0.890625 -5.628906 -0.671875 -6.328125 C -0.453125 -7.023438 -0.226562 -7.375 0 -7.375 C 0.363281 -7.375 0.816406 -7.5 1.359375 -7.75 C 1.910156 -8 2.382812 -8.4375 2.78125 -9.0625 C 3.1875 -9.695312 3.320312 -10.546875 3.1875 -11.609375 L 2.640625 -16.640625 L 11.265625 -19.9375 L 11.21875 -13.65625 C 11.21875 -12.09375 11.421875 -10.84375 11.828125 -9.90625 C 12.242188 -8.976562 12.757812 -8.320312 13.375 -7.9375 C 13.988281 -7.5625 14.5625 -7.375 15.09375 -7.375 C 15.363281 -7.375 15.597656 -7.023438 15.796875 -6.328125 C 15.992188 -5.628906 16.09375 -4.75 16.09375 -3.6875 C 16.09375 -2.65625 15.992188 -1.78125 15.796875 -1.0625 C 15.597656 -0.351562 15.363281 0 15.09375 0 C 14.0625 0 13.039062 -0.1875 12.03125 -0.5625 C 11.019531 -0.945312 10.128906 -1.4375 9.359375 -2.03125 C 8.597656 -2.632812 8.035156 -3.285156 7.671875 -3.984375 C 6.640625 -2.753906 5.566406 -1.78125 4.453125 -1.0625 C 3.347656 -0.351562 1.863281 0 0 0 Z M 7.46875 8.171875 C 6.507812 8.171875 5.671875 7.820312 4.953125 7.125 C 4.242188 6.425781 3.890625 5.597656 3.890625 4.640625 C 3.890625 3.640625 4.242188 2.789062 4.953125 2.09375 C 5.671875 1.394531 6.507812 1.046875 7.46875 1.046875 C 8.4375 1.046875 9.273438 1.394531 9.984375 2.09375 C 10.703125 2.789062 11.0625 3.640625 11.0625 4.640625 C 11.0625 5.597656 10.703125 6.425781 9.984375 7.125 C 9.273438 7.820312 8.4375 8.171875 7.46875 8.171875 Z M 7.46875 8.171875 "/></g></g></g><g fill="#ffffff" fill-opacity="1"><g transform="translate(603.121555, 285.698642)"><g><path d="M 4.640625 -22.421875 C 3.703125 -22.421875 2.910156 -22.753906 2.265625 -23.421875 C 1.617188 -24.085938 1.296875 -24.867188 1.296875 -25.765625 C 1.296875 -26.722656 1.617188 -27.535156 2.265625 -28.203125 C 2.910156 -28.867188 3.703125 -29.203125 4.640625 -29.203125 C 5.335938 -29.203125 5.96875 -29.007812 6.53125 -28.625 C 7.09375 -28.238281 7.488281 -27.75 7.71875 -27.15625 C 7.988281 -27.75 8.40625 -28.238281 8.96875 -28.625 C 9.53125 -29.007812 10.128906 -29.203125 10.765625 -29.203125 C 11.722656 -29.203125 12.535156 -28.867188 13.203125 -28.203125 C 13.867188 -27.535156 14.203125 -26.722656 14.203125 -25.765625 C 14.203125 -24.867188 13.867188 -24.085938 13.203125 -23.421875 C 12.535156 -22.753906 11.722656 -22.421875 10.765625 -22.421875 C 10.128906 -22.421875 9.53125 -22.609375 8.96875 -22.984375 C 8.40625 -23.367188 7.988281 -23.863281 7.71875 -24.46875 C 7.488281 -23.863281 7.09375 -23.367188 6.53125 -22.984375 C 5.96875 -22.609375 5.335938 -22.421875 4.640625 -22.421875 Z M 0 0 C -0.226562 0 -0.453125 -0.351562 -0.671875 -1.0625 C -0.890625 -1.78125 -1 -2.65625 -1 -3.6875 C -1 -4.75 -0.890625 -5.628906 -0.671875 -6.328125 C -0.453125 -7.023438 -0.226562 -7.375 0 -7.375 C 0.363281 -7.375 0.800781 -7.503906 1.3125 -7.765625 C 1.832031 -8.035156 2.28125 -8.484375 2.65625 -9.109375 C 3.039062 -9.742188 3.203125 -10.609375 3.140625 -11.703125 L 2.640625 -20.421875 L 11.265625 -19.6875 L 11.21875 -13.65625 C 11.21875 -11.289062 11.570312 -9.648438 12.28125 -8.734375 C 13 -7.828125 13.9375 -7.375 15.09375 -7.375 C 15.363281 -7.375 15.597656 -7.023438 15.796875 -6.328125 C 15.992188 -5.628906 16.09375 -4.75 16.09375 -3.6875 C 16.09375 -2.65625 15.992188 -1.78125 15.796875 -1.0625 C 15.597656 -0.351562 15.363281 0 15.09375 0 C 14.0625 0 13.039062 -0.1875 12.03125 -0.5625 C 11.019531 -0.945312 10.128906 -1.4375 9.359375 -2.03125 C 8.597656 -2.632812 8.035156 -3.285156 7.671875 -3.984375 C 6.640625 -2.753906 5.566406 -1.78125 4.453125 -1.0625 C 3.347656 -0.351562 1.863281 0 0 0 Z M 0 0 "/></g></g></g><g fill="#ffffff" fill-opacity="1"><g transform="translate(620.309479, 285.698642)"><g><path d="M 14.65625 -21.828125 C 13.6875 -21.828125 12.84375 -22.175781 12.125 -22.875 C 11.414062 -23.570312 11.0625 -24.398438 11.0625 -25.359375 C 11.0625 -26.359375 11.414062 -27.207031 12.125 -27.90625 C 12.84375 -28.601562 13.6875 -28.953125 14.65625 -28.953125 C 15.613281 -28.953125 16.445312 -28.601562 17.15625 -27.90625 C 17.875 -27.207031 18.234375 -26.359375 18.234375 -25.359375 C 18.234375 -24.398438 17.875 -23.570312 17.15625 -22.875 C 16.445312 -22.175781 15.613281 -21.828125 14.65625 -21.828125 Z M 0 0 C -0.226562 0 -0.453125 -0.351562 -0.671875 -1.0625 C -0.890625 -1.78125 -1 -2.65625 -1 -3.6875 C -1 -4.75 -0.890625 -5.628906 -0.671875 -6.328125 C -0.453125 -7.023438 -0.226562 -7.375 0 -7.375 C 1.332031 -7.375 2.769531 -7.644531 4.3125 -8.1875 C 5.851562 -8.738281 7.40625 -9.429688 8.96875 -10.265625 C 10.53125 -11.097656 11.972656 -11.910156 13.296875 -12.703125 C 10.972656 -13.265625 8.796875 -13.710938 6.765625 -14.046875 C 4.742188 -14.378906 3.300781 -14.5 2.4375 -14.40625 L 2 -14.84375 L 6.828125 -24.015625 C 6.992188 -23.847656 7.375 -23.484375 7.96875 -22.921875 C 8.570312 -22.359375 9.378906 -21.703125 10.390625 -20.953125 C 11.398438 -20.203125 12.578125 -19.46875 13.921875 -18.75 C 15.265625 -18.039062 16.734375 -17.453125 18.328125 -16.984375 C 19.929688 -16.523438 21.628906 -16.296875 23.421875 -16.296875 L 25.15625 -16.296875 L 22.765625 -6.78125 C 20.742188 -6.976562 18.914062 -6.875 17.28125 -6.46875 C 15.65625 -6.070312 14.15625 -5.523438 12.78125 -4.828125 C 11.40625 -4.128906 10.0625 -3.40625 8.75 -2.65625 C 7.4375 -1.914062 6.070312 -1.285156 4.65625 -0.765625 C 3.25 -0.253906 1.695312 0 0 0 Z M 0 0 "/></g></g></g><g fill="#ffffff" fill-opacity="1"><g transform="translate(649.55326, 285.698642)"><g><path d="M 13.796875 0 C 11.304688 0 9.28125 -0.410156 7.71875 -1.234375 C 6.15625 -2.066406 5.3125 -3.484375 5.1875 -5.484375 L 7.671875 -9.0625 C 7.941406 -8.5 8.546875 -8.09375 9.484375 -7.84375 C 10.429688 -7.59375 11.867188 -7.46875 13.796875 -7.46875 C 14.203125 -7.46875 14.742188 -7.507812 15.421875 -7.59375 C 16.097656 -7.675781 16.757812 -7.882812 17.40625 -8.21875 C 18.0625 -8.550781 18.59375 -9.066406 19 -9.765625 C 19.414062 -10.460938 19.578125 -11.410156 19.484375 -12.609375 L 17.78125 -32.78125 L 27.40625 -36.875 L 26.5625 -13.40625 C 26.488281 -11.039062 25.976562 -8.835938 25.03125 -6.796875 C 24.09375 -4.753906 22.703125 -3.109375 20.859375 -1.859375 C 19.015625 -0.617188 16.660156 0 13.796875 0 Z M 15.390625 -8.875 L 14.90625 -8.625 L 2 -25.65625 L 9.171875 -31.34375 L 17.234375 -16.09375 Z M 15.390625 -8.875 "/></g></g></g><g fill="#ffffff" fill-opacity="1"><g transform="translate(680.989018, 285.698642)"><g/></g></g><g fill="#ffffff" fill-opacity="1"><g transform="translate(692.049406, 285.698642)"><g><path d="M 10.421875 0 C 7.828125 0 5.804688 -0.410156 4.359375 -1.234375 C 2.910156 -2.066406 2.125 -3.484375 2 -5.484375 L 4.4375 -9.0625 C 4.769531 -8.46875 5.234375 -8.0625 5.828125 -7.84375 C 6.429688 -7.632812 7.070312 -7.519531 7.75 -7.5 C 8.425781 -7.476562 9.015625 -7.46875 9.515625 -7.46875 C 10.546875 -7.46875 11.507812 -7.597656 12.40625 -7.859375 C 13.300781 -8.128906 13.988281 -8.546875 14.46875 -9.109375 C 14.957031 -9.679688 15.082031 -10.390625 14.84375 -11.234375 C 14.613281 -12.078125 13.898438 -13.082031 12.703125 -14.25 C 12.003906 -14.976562 11.207031 -15.65625 10.3125 -16.28125 C 9.414062 -16.914062 8.550781 -17.472656 7.71875 -17.953125 C 6.894531 -18.441406 6.195312 -18.769531 5.625 -18.9375 L 5.53125 -19.484375 L 10.65625 -27.109375 C 13.488281 -26.078125 15.578125 -24.476562 16.921875 -22.3125 C 18.265625 -20.15625 19.050781 -17.519531 19.28125 -14.40625 C 19.476562 -11.84375 19.898438 -10.03125 20.546875 -8.96875 C 21.203125 -7.90625 22.175781 -7.375 23.46875 -7.375 C 23.738281 -7.375 23.972656 -7.023438 24.171875 -6.328125 C 24.367188 -5.628906 24.46875 -4.75 24.46875 -3.6875 C 24.46875 -2.65625 24.367188 -1.78125 24.171875 -1.0625 C 23.972656 -0.351562 23.738281 0 23.46875 0 C 22.070312 0 20.890625 -0.289062 19.921875 -0.875 C 18.960938 -1.457031 18.25 -2.210938 17.78125 -3.140625 C 17.125 -2.210938 16.203125 -1.457031 15.015625 -0.875 C 13.835938 -0.289062 12.304688 0 10.421875 0 Z M 10.421875 0 "/></g></g></g><g fill="#ffffff" fill-opacity="1"><g transform="translate(717.606712, 285.698642)"><g><path d="M 0 0 C -0.226562 0 -0.453125 -0.351562 -0.671875 -1.0625 C -0.890625 -1.78125 -1 -2.65625 -1 -3.6875 C -1 -4.75 -0.890625 -5.628906 -0.671875 -6.328125 C -0.453125 -7.023438 -0.226562 -7.375 0 -7.375 C 0.832031 -7.375 1.882812 -7.472656 3.15625 -7.671875 C 4.4375 -7.867188 5.820312 -8.164062 7.3125 -8.5625 C 8.8125 -8.96875 10.242188 -9.453125 11.609375 -10.015625 C 10.179688 -11.378906 8.753906 -12.59375 7.328125 -13.65625 C 5.898438 -14.71875 4.40625 -15.363281 2.84375 -15.59375 L 0.5 -23.515625 C 0.757812 -23.546875 1.351562 -23.628906 2.28125 -23.765625 C 3.21875 -23.898438 4.375 -24.039062 5.75 -24.1875 C 7.132812 -24.34375 8.601562 -24.492188 10.15625 -24.640625 C 11.71875 -24.785156 13.242188 -24.890625 14.734375 -24.953125 C 16.234375 -25.023438 17.566406 -25.03125 18.734375 -24.96875 C 19.660156 -24.925781 20.601562 -24.835938 21.5625 -24.703125 C 22.53125 -24.578125 23.421875 -24.347656 24.234375 -24.015625 C 25.054688 -23.679688 25.710938 -23.179688 26.203125 -22.515625 C 26.703125 -21.859375 26.953125 -20.945312 26.953125 -19.78125 C 26.953125 -17.757812 26.507812 -15.859375 25.625 -14.078125 C 24.75 -12.296875 23.582031 -10.675781 22.125 -9.21875 C 23.25 -8.6875 24.398438 -8.242188 25.578125 -7.890625 C 26.765625 -7.546875 27.972656 -7.375 29.203125 -7.375 C 29.460938 -7.375 29.691406 -7.023438 29.890625 -6.328125 C 30.097656 -5.628906 30.203125 -4.75 30.203125 -3.6875 C 30.203125 -2.65625 30.097656 -1.78125 29.890625 -1.0625 C 29.691406 -0.351562 29.460938 0 29.203125 0 C 26.671875 0 24.410156 -0.503906 22.421875 -1.515625 C 20.429688 -2.535156 18.570312 -3.757812 16.84375 -5.1875 C 15.007812 -4.082031 13.078125 -3.140625 11.046875 -2.359375 C 9.023438 -1.585938 7.0625 -1 5.15625 -0.59375 C 3.25 -0.195312 1.53125 0 0 0 Z M 16.5 -13 C 17.0625 -13.570312 17.546875 -14.238281 17.953125 -15 C 18.367188 -15.757812 18.460938 -16.539062 18.234375 -17.34375 C 18.203125 -17.507812 18.023438 -17.691406 17.703125 -17.890625 C 17.390625 -18.085938 16.90625 -18.15625 16.25 -18.09375 L 11.90625 -17.34375 C 12.601562 -16.613281 13.332031 -15.878906 14.09375 -15.140625 C 14.863281 -14.410156 15.664062 -13.695312 16.5 -13 Z M 16.5 -13 "/></g></g></g><g fill="#ffffff" fill-opacity="1"><g transform="translate(748.893025, 285.698642)"><g><path d="M 4.640625 -22.421875 C 3.703125 -22.421875 2.910156 -22.753906 2.265625 -23.421875 C 1.617188 -24.085938 1.296875 -24.867188 1.296875 -25.765625 C 1.296875 -26.722656 1.617188 -27.535156 2.265625 -28.203125 C 2.910156 -28.867188 3.703125 -29.203125 4.640625 -29.203125 C 5.335938 -29.203125 5.96875 -29.007812 6.53125 -28.625 C 7.09375 -28.238281 7.488281 -27.75 7.71875 -27.15625 C 7.988281 -27.75 8.40625 -28.238281 8.96875 -28.625 C 9.53125 -29.007812 10.128906 -29.203125 10.765625 -29.203125 C 11.722656 -29.203125 12.535156 -28.867188 13.203125 -28.203125 C 13.867188 -27.535156 14.203125 -26.722656 14.203125 -25.765625 C 14.203125 -24.867188 13.867188 -24.085938 13.203125 -23.421875 C 12.535156 -22.753906 11.722656 -22.421875 10.765625 -22.421875 C 10.128906 -22.421875 9.53125 -22.609375 8.96875 -22.984375 C 8.40625 -23.367188 7.988281 -23.863281 7.71875 -24.46875 C 7.488281 -23.863281 7.09375 -23.367188 6.53125 -22.984375 C 5.96875 -22.609375 5.335938 -22.421875 4.640625 -22.421875 Z M 0 0 C -0.226562 0 -0.453125 -0.351562 -0.671875 -1.0625 C -0.890625 -1.78125 -1 -2.65625 -1 -3.6875 C -1 -4.75 -0.890625 -5.628906 -0.671875 -6.328125 C -0.453125 -7.023438 -0.226562 -7.375 0 -7.375 C 0.363281 -7.375 0.800781 -7.503906 1.3125 -7.765625 C 1.832031 -8.035156 2.28125 -8.484375 2.65625 -9.109375 C 3.039062 -9.742188 3.203125 -10.609375 3.140625 -11.703125 L 2.640625 -20.421875 L 11.265625 -19.6875 L 11.21875 -13.65625 C 11.21875 -11.289062 11.570312 -9.648438 12.28125 -8.734375 C 13 -7.828125 13.9375 -7.375 15.09375 -7.375 C 15.363281 -7.375 15.597656 -7.023438 15.796875 -6.328125 C 15.992188 -5.628906 16.09375 -4.75 16.09375 -3.6875 C 16.09375 -2.65625 15.992188 -1.78125 15.796875 -1.0625 C 15.597656 -0.351562 15.363281 0 15.09375 0 C 14.0625 0 13.039062 -0.1875 12.03125 -0.5625 C 11.019531 -0.945312 10.128906 -1.4375 9.359375 -2.03125 C 8.597656 -2.632812 8.035156 -3.285156 7.671875 -3.984375 C 6.640625 -2.753906 5.566406 -1.78125 4.453125 -1.0625 C 3.347656 -0.351562 1.863281 0 0 0 Z M 0 0 "/></g></g></g><g fill="#ffffff" fill-opacity="1"><g transform="translate(766.080982, 285.698642)"><g><path d="M 0 0 C -0.226562 0 -0.453125 -0.351562 -0.671875 -1.0625 C -0.890625 -1.78125 -1 -2.65625 -1 -3.6875 C -1 -4.75 -0.890625 -5.628906 -0.671875 -6.328125 C -0.453125 -7.023438 -0.226562 -7.375 0 -7.375 C 0.957031 -7.375 1.9375 -7.503906 2.9375 -7.765625 C 3.9375 -8.035156 4.75 -8.484375 5.375 -9.109375 C 6.007812 -9.742188 6.257812 -10.609375 6.125 -11.703125 L 5.375 -18.140625 L 14.25 -19.6875 L 14.203125 -12.453125 C 14.203125 -10.992188 14.382812 -9.90625 14.75 -9.1875 C 15.113281 -8.476562 15.523438 -8.015625 15.984375 -7.796875 C 16.453125 -7.578125 16.835938 -7.46875 17.140625 -7.46875 C 17.503906 -7.46875 17.910156 -7.59375 18.359375 -7.84375 C 18.804688 -8.09375 19.171875 -8.523438 19.453125 -9.140625 C 19.734375 -9.753906 19.8125 -10.609375 19.6875 -11.703125 L 18.78125 -20.125 L 27.796875 -19.03125 L 27.75 -13.546875 C 27.75 -11.722656 28.003906 -10.253906 28.515625 -9.140625 C 29.035156 -8.023438 29.863281 -7.46875 31 -7.46875 C 31.394531 -7.46875 31.804688 -7.609375 32.234375 -7.890625 C 32.671875 -8.179688 33.019531 -8.640625 33.28125 -9.265625 C 33.550781 -9.898438 33.601562 -10.710938 33.4375 -11.703125 L 32.140625 -20.375 L 41.5625 -24.171875 L 41.5625 -14.40625 C 41.5625 -12.675781 41.875 -11.296875 42.5 -10.265625 C 43.132812 -9.234375 43.957031 -8.492188 44.96875 -8.046875 C 45.976562 -7.597656 47.050781 -7.375 48.1875 -7.375 C 48.445312 -7.375 48.675781 -7.023438 48.875 -6.328125 C 49.082031 -5.628906 49.1875 -4.75 49.1875 -3.6875 C 49.1875 -2.65625 49.082031 -1.78125 48.875 -1.0625 C 48.675781 -0.351562 48.445312 0 48.1875 0 C 47.050781 0 45.851562 -0.113281 44.59375 -0.34375 C 43.332031 -0.582031 42.175781 -0.945312 41.125 -1.4375 C 40.082031 -1.9375 39.3125 -2.585938 38.8125 -3.390625 C 38.019531 -2.296875 37.070312 -1.457031 35.96875 -0.875 C 34.875 -0.289062 33.398438 0 31.546875 0 C 30.015625 0 28.632812 -0.226562 27.40625 -0.6875 C 26.175781 -1.15625 25.128906 -1.722656 24.265625 -2.390625 C 22.503906 -0.796875 20.113281 0 17.09375 0 C 15.632812 0 14.390625 -0.269531 13.359375 -0.8125 C 12.328125 -1.363281 11.476562 -2.023438 10.8125 -2.796875 C 9.78125 -1.929688 8.289062 -1.25 6.34375 -0.75 C 4.40625 -0.25 2.289062 0 0 0 Z M 0 0 "/></g></g></g><g fill="#ffffff" fill-opacity="1"><g transform="translate(816.347773, 285.698642)"><g><path d="M 15.890625 0.640625 C 14.160156 0.878906 12.488281 0.75 10.875 0.25 C 9.269531 -0.25 7.867188 -1.0625 6.671875 -2.1875 C 5.847656 -1.394531 4.878906 -0.832031 3.765625 -0.5 C 2.648438 -0.164062 1.394531 0 0 0 C -0.226562 0 -0.453125 -0.351562 -0.671875 -1.0625 C -0.890625 -1.78125 -1 -2.65625 -1 -3.6875 C -1 -4.75 -0.890625 -5.628906 -0.671875 -6.328125 C -0.453125 -7.023438 -0.226562 -7.375 0 -7.375 C 0.832031 -7.375 1.535156 -7.765625 2.109375 -8.546875 C 2.691406 -9.328125 2.984375 -10.628906 2.984375 -12.453125 C 2.984375 -14.285156 3.390625 -15.988281 4.203125 -17.5625 C 5.023438 -19.144531 6.15625 -20.46875 7.59375 -21.53125 C 9.039062 -22.59375 10.695312 -23.253906 12.5625 -23.515625 C 14.78125 -23.847656 16.785156 -23.585938 18.578125 -22.734375 C 20.378906 -21.890625 21.875 -20.628906 23.0625 -18.953125 C 24.257812 -17.273438 25.007812 -15.328125 25.3125 -13.109375 C 25.507812 -11.578125 25.46875 -10.054688 25.1875 -8.546875 C 24.90625 -7.035156 24.375 -5.625 23.59375 -4.3125 C 22.8125 -3 21.78125 -1.898438 20.5 -1.015625 C 19.21875 -0.140625 17.679688 0.410156 15.890625 0.640625 Z M 12.90625 -7.46875 C 13.96875 -7.632812 14.8125 -8.15625 15.4375 -9.03125 C 16.070312 -9.914062 16.304688 -10.875 16.140625 -11.90625 C 15.972656 -12.96875 15.457031 -13.820312 14.59375 -14.46875 C 13.726562 -15.125 12.765625 -15.367188 11.703125 -15.203125 C 10.679688 -15.035156 9.84375 -14.519531 9.1875 -13.65625 C 8.539062 -12.789062 8.300781 -11.828125 8.46875 -10.765625 C 8.632812 -9.703125 9.148438 -8.851562 10.015625 -8.21875 C 10.878906 -7.59375 11.84375 -7.34375 12.90625 -7.46875 Z M 12.90625 -7.46875 "/></g></g></g><g clip-path="url(#38ed1a1381)"><g clip-path="url(#29ddc96ca6)"><path fill="#ffffff" d="M 893.847656 256.59375 L 914.191406 256.59375 L 914.191406 276.9375 L 893.847656 276.9375 Z M 893.847656 256.59375 " fill-opacity="1" fill-rule="nonzero"/></g></g></svg>