<svg xmlns="http://www.w3.org/2000/svg" xmlns:xlink="http://www.w3.org/1999/xlink" width="1366" zoomAndPan="magnify" viewBox="0 0 1024.5 576" height="768" preserveAspectRatio="xMidYMid meet" version="1.0"><defs><g/></defs><g fill="#88a1bf" fill-opacity="0.4"><g transform="translate(339.000923, 171.111238)"><g><path d="M 14.375 -48.796875 C 13.726562 -48.796875 13.039062 -49.03125 12.3125 -49.5 C 11.59375 -49.96875 11.128906 -50.691406 10.921875 -51.671875 C 10.867188 -51.941406 10.84375 -52.207031 10.84375 -52.46875 C 10.84375 -53.125 11.070312 -53.8125 11.53125 -54.53125 C 11.988281 -55.25 12.703125 -55.710938 13.671875 -55.921875 C 13.941406 -55.984375 14.21875 -56.015625 14.5 -56.015625 C 15.15625 -56.015625 15.84375 -55.78125 16.5625 -55.3125 C 17.28125 -54.84375 17.742188 -54.128906 17.953125 -53.171875 C 18.015625 -52.890625 18.046875 -52.613281 18.046875 -52.34375 C 18.046875 -51.695312 17.8125 -51.007812 17.34375 -50.28125 C 16.875 -49.5625 16.148438 -49.097656 15.171875 -48.890625 C 14.910156 -48.828125 14.644531 -48.796875 14.375 -48.796875 Z M 21.3125 -21.78125 C 22.144531 -21.78125 23.414062 -21.878906 25.125 -22.078125 L 25.34375 -30.6875 C 23.34375 -31.488281 21.644531 -31.890625 20.25 -31.890625 C 16.457031 -31.890625 14.53125 -30.367188 14.46875 -27.328125 C 14.507812 -23.628906 16.789062 -21.78125 21.3125 -21.78125 Z M 39.265625 -7.578125 L 24.796875 -7.578125 L 24.890625 -11.640625 C 22.628906 -11.410156 20.957031 -11.296875 19.875 -11.296875 C 10.25 -11.296875 5.375 -16.648438 5.25 -27.359375 C 5.332031 -37.828125 9.515625 -43.0625 17.796875 -43.0625 C 19.609375 -43.0625 22.21875 -42.6875 25.625 -41.9375 L 25.6875 -44.859375 L 36.484375 -44.28125 L 33.859375 -18.484375 L 39.265625 -18.484375 Z M 25.375 -51.15625 C 24.695312 -51.15625 24 -51.390625 23.28125 -51.859375 C 22.5625 -52.328125 22.097656 -53.0625 21.890625 -54.0625 C 21.828125 -54.300781 21.796875 -54.546875 21.796875 -54.796875 C 21.796875 -55.460938 22.03125 -56.160156 22.5 -56.890625 C 22.96875 -57.628906 23.679688 -58.097656 24.640625 -58.296875 C 24.921875 -58.359375 25.195312 -58.390625 25.46875 -58.390625 C 26.113281 -58.390625 26.796875 -58.15625 27.515625 -57.6875 C 28.242188 -57.21875 28.722656 -56.503906 28.953125 -55.546875 C 29.015625 -55.265625 29.046875 -54.992188 29.046875 -54.734375 C 29.046875 -54.078125 28.8125 -53.378906 28.34375 -52.640625 C 27.875 -51.910156 27.148438 -51.445312 26.171875 -51.25 C 25.898438 -51.1875 25.632812 -51.15625 25.375 -51.15625 Z M 25.375 -51.15625 "/></g></g></g><g fill="#88a1bf" fill-opacity="0.4"><g transform="translate(377.480434, 171.111238)"><g><path d="M 24.390625 -21.890625 L 24.765625 -33.84375 C 22.929688 -34.101562 21.707031 -34.234375 21.09375 -34.234375 C 17.082031 -34.234375 15.078125 -32.347656 15.078125 -28.578125 C 15.078125 -24.960938 18.179688 -22.734375 24.390625 -21.890625 Z M 14.75 -7.265625 C 11.28125 -7.265625 6.257812 -7.359375 -0.3125 -7.546875 L -0.28125 -18.59375 C 2.21875 -18.53125 4.914062 -18.5 7.8125 -18.5 L 12.390625 -18.53125 C 7.765625 -22.019531 5.453125 -25.984375 5.453125 -30.421875 L 5.484375 -31.15625 C 6.203125 -39.6875 12.515625 -43.953125 24.421875 -43.953125 C 27.617188 -43.953125 30.804688 -43.707031 33.984375 -43.21875 C 34.109375 -39.75 34.171875 -36.21875 34.171875 -32.625 C 34.171875 -26.613281 33.957031 -21.582031 33.53125 -17.53125 C 33.019531 -13.6875 32.003906 -11.132812 30.484375 -9.875 C 28.972656 -8.625 27.289062 -7.859375 25.4375 -7.578125 C 23.195312 -7.367188 19.632812 -7.265625 14.75 -7.265625 Z M 23.9375 -49.015625 C 22.976562 -49.015625 22.15625 -49.351562 21.46875 -50.03125 C 20.789062 -50.71875 20.453125 -51.53125 20.453125 -52.46875 C 20.453125 -53.425781 20.789062 -54.242188 21.46875 -54.921875 C 22.15625 -55.609375 22.976562 -55.953125 23.9375 -55.953125 C 24.875 -55.953125 25.679688 -55.609375 26.359375 -54.921875 C 27.046875 -54.242188 27.390625 -53.425781 27.390625 -52.46875 C 27.390625 -51.53125 27.046875 -50.71875 26.359375 -50.03125 C 25.679688 -49.351562 24.875 -49.015625 23.9375 -49.015625 Z M 23.9375 -49.015625 "/></g></g></g><g fill="#88a1bf" fill-opacity="0.4"><g transform="translate(412.87548, 171.111238)"><g><path d="M 1.953125 8.640625 L 1.84375 -2.296875 C 6.5 -3.085938 8.828125 -6.84375 8.828125 -13.5625 C 8.828125 -17 8.378906 -22.425781 7.484375 -29.84375 L 16.984375 -31.296875 C 17.367188 -27.554688 17.6875 -23.8125 17.9375 -20.0625 C 19.09375 -19.039062 21.023438 -18.53125 23.734375 -18.53125 L 23.734375 -7.578125 L 23.578125 -7.578125 C 21.421875 -7.578125 19.46875 -7.800781 17.71875 -8.25 C 15.582031 1.539062 10.328125 7.171875 1.953125 8.640625 Z M 1.953125 8.640625 "/></g></g></g><g fill="#88a1bf" fill-opacity="0.4"><g transform="translate(435.321866, 171.111238)"><g><path d="M 17.890625 -18.9375 C 19.972656 -19.238281 21.378906 -19.492188 22.109375 -19.703125 C 25.773438 -20.554688 27.609375 -22.359375 27.609375 -25.109375 C 27.609375 -25.410156 27.460938 -26.410156 27.171875 -28.109375 C 26.890625 -29.804688 25.476562 -30.867188 22.9375 -31.296875 C 22.726562 -31.316406 22.523438 -31.328125 22.328125 -31.328125 C 21.390625 -31.328125 19.675781 -30.929688 17.1875 -30.140625 C 17.25 -26.921875 17.484375 -23.1875 17.890625 -18.9375 Z M 43.828125 -7.578125 L -0.796875 -7.578125 L -0.828125 -18.53125 L 8.28125 -18.65625 C 8.070312 -20.976562 7.945312 -22.492188 7.90625 -23.203125 L 7.8125 -26.328125 L 6.078125 -25.5 L 4.125 -36.859375 C 12.34375 -41.660156 19.179688 -44.0625 24.640625 -44.0625 C 26.773438 -44.0625 28.648438 -43.664062 30.265625 -42.875 C 35.472656 -40.269531 38.078125 -35.414062 38.078125 -28.3125 C 38.078125 -24.707031 37.597656 -21.410156 36.640625 -18.421875 L 43.828125 -18.53125 Z M 43.828125 -7.578125 "/></g></g></g><g fill="#88a1bf" fill-opacity="0.4"><g transform="translate(478.290657, 171.111238)"><g><path d="M 24.671875 -18.109375 C 24.910156 -19.453125 25.03125 -20.5 25.03125 -21.25 C 25.03125 -25.570312 22.8125 -27.914062 18.375 -28.28125 C 18.070312 -28.320312 17.757812 -28.34375 17.4375 -28.34375 C 13.5625 -28.34375 11.195312 -25.015625 10.34375 -18.359375 Z M 34.875 -7.484375 L -1.140625 -7.578125 L -1.140625 -18.5625 L 4.359375 -18.5625 L 4.328125 -21.1875 C 4.328125 -33.445312 9.804688 -39.578125 20.765625 -39.578125 L 21.59375 -39.578125 C 29.75 -38.867188 34.003906 -31.863281 34.359375 -18.5625 L 39.515625 -18.59375 L 39.515625 -7.546875 Z M 34.875 -7.484375 "/></g></g></g><g fill="#88a1bf" fill-opacity="0.4"><g transform="translate(516.648011, 171.111238)"><g><path d="M 12.84375 -7.515625 L -0.640625 -7.578125 L -0.671875 -18.5625 L 7.078125 -18.53125 C 7.398438 -23.050781 7.5625 -27.164062 7.5625 -30.875 C 7.5625 -38.832031 7.023438 -46.296875 5.953125 -53.265625 L 17.578125 -53.265625 C 18.335938 -45.867188 18.71875 -36.96875 18.71875 -26.5625 C 18.71875 -22.1875 18.644531 -17.628906 18.5 -12.890625 L 18.5 -12.703125 C 18.5 -9.796875 16.613281 -8.066406 12.84375 -7.515625 Z M 12.84375 -7.515625 "/></g></g></g><g fill="#88a1bf" fill-opacity="0.4"><g transform="translate(536.162624, 171.111238)"><g><path d="M 3.03125 -7.421875 L 3.328125 -19.484375 C 3.429688 -21.847656 3.484375 -24.207031 3.484375 -26.5625 C 3.484375 -36.03125 2.832031 -44.929688 1.53125 -53.265625 L 13.140625 -53.265625 C 13.890625 -45.867188 14.265625 -36.96875 14.265625 -26.5625 C 14.265625 -22.1875 14.191406 -17.628906 14.046875 -12.890625 L 14.046875 -12.703125 C 14.046875 -9.796875 12.164062 -8.066406 8.40625 -7.515625 Z M 3.03125 -7.421875 "/></g></g></g><g fill="#88a1bf" fill-opacity="0.4"><g transform="translate(553.417338, 171.111238)"><g/></g></g><g fill="#88a1bf" fill-opacity="0.4"><g transform="translate(565.633056, 171.111238)"><g><path d="M 20.15625 -4.28125 C 8.039062 -4.375 1.984375 -10.039062 1.984375 -21.28125 C 1.984375 -25.644531 2.65625 -30.367188 4 -35.453125 L 15.78125 -33.171875 C 14.050781 -27.835938 13.1875 -23.4375 13.1875 -19.96875 C 13.1875 -15.289062 15.507812 -12.910156 20.15625 -12.828125 C 25.507812 -12.867188 28.1875 -15.71875 28.1875 -21.375 L 28.1875 -23.609375 L 26.453125 -23.421875 L 25.890625 -34.234375 L 54.484375 -35.828125 L 55.765625 -15.203125 L 43.890625 -12.734375 L 44.28125 -25.59375 L 38.65625 -24.921875 C 38.539062 -11.296875 32.375 -4.414062 20.15625 -4.28125 Z M 14.875 6.5625 C 13.894531 6.5625 13.046875 6.207031 12.328125 5.5 C 11.617188 4.800781 11.265625 3.957031 11.265625 2.96875 C 11.265625 1.988281 11.617188 1.140625 12.328125 0.421875 C 13.046875 -0.285156 13.894531 -0.640625 14.875 -0.640625 C 15.875 -0.640625 16.722656 -0.285156 17.421875 0.421875 C 18.117188 1.140625 18.46875 1.988281 18.46875 2.96875 C 18.46875 3.957031 18.117188 4.800781 17.421875 5.5 C 16.722656 6.207031 15.875 6.5625 14.875 6.5625 Z M 26.109375 6.5625 C 25.128906 6.5625 24.28125 6.207031 23.5625 5.5 C 22.851562 4.800781 22.5 3.957031 22.5 2.96875 C 22.5 1.988281 22.851562 1.140625 23.5625 0.421875 C 24.28125 -0.285156 25.128906 -0.640625 26.109375 -0.640625 C 27.109375 -0.640625 27.957031 -0.285156 28.65625 0.421875 C 29.363281 1.140625 29.71875 1.988281 29.71875 2.96875 C 29.71875 3.957031 29.363281 4.800781 28.65625 5.5 C 27.957031 6.207031 27.109375 6.5625 26.109375 6.5625 Z M 26.109375 6.5625 "/></g></g></g><g fill="#88a1bf" fill-opacity="0.4"><g transform="translate(623.138551, 171.111238)"><g><path d="M 35.03125 -7.578125 C 31.382812 -7.578125 28.3125 -8.335938 25.8125 -9.859375 C 23.46875 -8.335938 20.566406 -7.578125 17.109375 -7.578125 L 1.90625 -7.578125 L 1.984375 -18.328125 C 5.734375 -17.648438 8.910156 -17.3125 11.515625 -17.3125 C 16.785156 -17.3125 19.410156 -18.941406 19.390625 -22.203125 C 19.390625 -25.441406 17.820312 -27.382812 14.6875 -28.03125 C 13.976562 -28.195312 13.21875 -28.28125 12.40625 -28.28125 C 10.25 -28.28125 8.40625 -27.992188 6.875 -27.421875 L 6.78125 -36.859375 C 10.40625 -38.453125 13.816406 -39.25 17.015625 -39.25 C 20.085938 -39.25 22.710938 -38.390625 24.890625 -36.671875 C 28.359375 -33.953125 30.09375 -30.523438 30.09375 -26.390625 C 30.09375 -25.203125 29.9375 -23.910156 29.625 -22.515625 L 29.625 -22.453125 C 29.625 -19.898438 31.394531 -18.601562 34.9375 -18.5625 Z M 35.03125 -7.578125 "/></g></g></g><g fill="#88a1bf" fill-opacity="0.4"><g transform="translate(656.731791, 171.111238)"><g><path d="M 40.765625 -7.578125 L -0.640625 -7.578125 L -0.609375 -18.59375 L 22.140625 -18.53125 C 23.359375 -20.226562 23.96875 -21.726562 23.96875 -23.03125 C 23.96875 -26.832031 21.941406 -28.890625 17.890625 -29.203125 C 17.285156 -29.234375 16.675781 -29.25 16.0625 -29.25 C 12.351562 -29.25 8.972656 -28.671875 5.921875 -27.515625 L 5.734375 -39.21875 C 9.273438 -39.96875 12.960938 -40.34375 16.796875 -40.34375 C 18.242188 -40.34375 19.640625 -40.28125 20.984375 -40.15625 C 30.585938 -38.632812 35.390625 -32.882812 35.390625 -22.90625 C 35.390625 -22.332031 35.1875 -20.882812 34.78125 -18.5625 L 40.734375 -18.5625 Z M 40.765625 -7.578125 "/></g></g></g><g fill="#88a1bf" fill-opacity="0.4"><g transform="translate(696.219095, 171.111238)"><g><path d="M 3.75 -39.796875 C 3.039062 -39.796875 2.296875 -40.082031 1.515625 -40.65625 C 0.640625 -41.28125 0.203125 -42.210938 0.203125 -43.453125 C 0.203125 -44.191406 0.476562 -44.945312 1.03125 -45.71875 C 1.664062 -46.59375 2.601562 -47.03125 3.84375 -47.03125 C 4.570312 -47.03125 5.328125 -46.742188 6.109375 -46.171875 C 6.984375 -45.566406 7.421875 -44.640625 7.421875 -43.390625 C 7.421875 -42.640625 7.15625 -41.898438 6.625 -41.171875 C 5.96875 -40.253906 5.007812 -39.796875 3.75 -39.796875 Z M 14.875 -41.5625 C 14.132812 -41.5625 13.398438 -41.828125 12.671875 -42.359375 C 11.953125 -42.890625 11.515625 -43.65625 11.359375 -44.65625 C 11.316406 -44.832031 11.296875 -45.023438 11.296875 -45.234375 C 11.296875 -45.941406 11.5625 -46.664062 12.09375 -47.40625 C 12.78125 -48.332031 13.734375 -48.796875 14.953125 -48.796875 C 15.691406 -48.796875 16.445312 -48.515625 17.21875 -47.953125 C 18.09375 -47.316406 18.53125 -46.367188 18.53125 -45.109375 C 18.53125 -44.378906 18.253906 -43.625 17.703125 -42.84375 C 17.078125 -41.988281 16.132812 -41.5625 14.875 -41.5625 Z M 3.84375 -7.578125 L -0.859375 -7.578125 L -0.828125 -18.59375 L 2.28125 -18.5 C 4.6875 -18.5 6.210938 -19.296875 6.859375 -20.890625 C 7.066406 -21.378906 7.171875 -21.988281 7.171875 -22.71875 C 7.171875 -24.976562 6.394531 -28.472656 4.84375 -33.203125 L 16.578125 -35.15625 C 17.265625 -31.789062 17.609375 -28.070312 17.609375 -24 C 17.328125 -13.050781 12.738281 -7.578125 3.84375 -7.578125 Z M 3.84375 -7.578125 "/></g></g></g><g fill="#ffffff" fill-opacity="1"><g transform="translate(336.236704, 168.347022)"><g><path d="M 14.375 -48.796875 C 13.726562 -48.796875 13.039062 -49.03125 12.3125 -49.5 C 11.59375 -49.96875 11.128906 -50.691406 10.921875 -51.671875 C 10.867188 -51.941406 10.84375 -52.207031 10.84375 -52.46875 C 10.84375 -53.125 11.070312 -53.8125 11.53125 -54.53125 C 11.988281 -55.25 12.703125 -55.710938 13.671875 -55.921875 C 13.941406 -55.984375 14.21875 -56.015625 14.5 -56.015625 C 15.15625 -56.015625 15.84375 -55.78125 16.5625 -55.3125 C 17.28125 -54.84375 17.742188 -54.128906 17.953125 -53.171875 C 18.015625 -52.890625 18.046875 -52.613281 18.046875 -52.34375 C 18.046875 -51.695312 17.8125 -51.007812 17.34375 -50.28125 C 16.875 -49.5625 16.148438 -49.097656 15.171875 -48.890625 C 14.910156 -48.828125 14.644531 -48.796875 14.375 -48.796875 Z M 21.3125 -21.78125 C 22.144531 -21.78125 23.414062 -21.878906 25.125 -22.078125 L 25.34375 -30.6875 C 23.34375 -31.488281 21.644531 -31.890625 20.25 -31.890625 C 16.457031 -31.890625 14.53125 -30.367188 14.46875 -27.328125 C 14.507812 -23.628906 16.789062 -21.78125 21.3125 -21.78125 Z M 39.265625 -7.578125 L 24.796875 -7.578125 L 24.890625 -11.640625 C 22.628906 -11.410156 20.957031 -11.296875 19.875 -11.296875 C 10.25 -11.296875 5.375 -16.648438 5.25 -27.359375 C 5.332031 -37.828125 9.515625 -43.0625 17.796875 -43.0625 C 19.609375 -43.0625 22.21875 -42.6875 25.625 -41.9375 L 25.6875 -44.859375 L 36.484375 -44.28125 L 33.859375 -18.484375 L 39.265625 -18.484375 Z M 25.375 -51.15625 C 24.695312 -51.15625 24 -51.390625 23.28125 -51.859375 C 22.5625 -52.328125 22.097656 -53.0625 21.890625 -54.0625 C 21.828125 -54.300781 21.796875 -54.546875 21.796875 -54.796875 C 21.796875 -55.460938 22.03125 -56.160156 22.5 -56.890625 C 22.96875 -57.628906 23.679688 -58.097656 24.640625 -58.296875 C 24.921875 -58.359375 25.195312 -58.390625 25.46875 -58.390625 C 26.113281 -58.390625 26.796875 -58.15625 27.515625 -57.6875 C 28.242188 -57.21875 28.722656 -56.503906 28.953125 -55.546875 C 29.015625 -55.265625 29.046875 -54.992188 29.046875 -54.734375 C 29.046875 -54.078125 28.8125 -53.378906 28.34375 -52.640625 C 27.875 -51.910156 27.148438 -51.445312 26.171875 -51.25 C 25.898438 -51.1875 25.632812 -51.15625 25.375 -51.15625 Z M 25.375 -51.15625 "/></g></g></g><g fill="#ffffff" fill-opacity="1"><g transform="translate(374.716215, 168.347022)"><g><path d="M 24.390625 -21.890625 L 24.765625 -33.84375 C 22.929688 -34.101562 21.707031 -34.234375 21.09375 -34.234375 C 17.082031 -34.234375 15.078125 -32.347656 15.078125 -28.578125 C 15.078125 -24.960938 18.179688 -22.734375 24.390625 -21.890625 Z M 14.75 -7.265625 C 11.28125 -7.265625 6.257812 -7.359375 -0.3125 -7.546875 L -0.28125 -18.59375 C 2.21875 -18.53125 4.914062 -18.5 7.8125 -18.5 L 12.390625 -18.53125 C 7.765625 -22.019531 5.453125 -25.984375 5.453125 -30.421875 L 5.484375 -31.15625 C 6.203125 -39.6875 12.515625 -43.953125 24.421875 -43.953125 C 27.617188 -43.953125 30.804688 -43.707031 33.984375 -43.21875 C 34.109375 -39.75 34.171875 -36.21875 34.171875 -32.625 C 34.171875 -26.613281 33.957031 -21.582031 33.53125 -17.53125 C 33.019531 -13.6875 32.003906 -11.132812 30.484375 -9.875 C 28.972656 -8.625 27.289062 -7.859375 25.4375 -7.578125 C 23.195312 -7.367188 19.632812 -7.265625 14.75 -7.265625 Z M 23.9375 -49.015625 C 22.976562 -49.015625 22.15625 -49.351562 21.46875 -50.03125 C 20.789062 -50.71875 20.453125 -51.53125 20.453125 -52.46875 C 20.453125 -53.425781 20.789062 -54.242188 21.46875 -54.921875 C 22.15625 -55.609375 22.976562 -55.953125 23.9375 -55.953125 C 24.875 -55.953125 25.679688 -55.609375 26.359375 -54.921875 C 27.046875 -54.242188 27.390625 -53.425781 27.390625 -52.46875 C 27.390625 -51.53125 27.046875 -50.71875 26.359375 -50.03125 C 25.679688 -49.351562 24.875 -49.015625 23.9375 -49.015625 Z M 23.9375 -49.015625 "/></g></g></g><g fill="#ffffff" fill-opacity="1"><g transform="translate(410.111262, 168.347022)"><g><path d="M 1.953125 8.640625 L 1.84375 -2.296875 C 6.5 -3.085938 8.828125 -6.84375 8.828125 -13.5625 C 8.828125 -17 8.378906 -22.425781 7.484375 -29.84375 L 16.984375 -31.296875 C 17.367188 -27.554688 17.6875 -23.8125 17.9375 -20.0625 C 19.09375 -19.039062 21.023438 -18.53125 23.734375 -18.53125 L 23.734375 -7.578125 L 23.578125 -7.578125 C 21.421875 -7.578125 19.46875 -7.800781 17.71875 -8.25 C 15.582031 1.539062 10.328125 7.171875 1.953125 8.640625 Z M 1.953125 8.640625 "/></g></g></g><g fill="#ffffff" fill-opacity="1"><g transform="translate(432.557647, 168.347022)"><g><path d="M 17.890625 -18.9375 C 19.972656 -19.238281 21.378906 -19.492188 22.109375 -19.703125 C 25.773438 -20.554688 27.609375 -22.359375 27.609375 -25.109375 C 27.609375 -25.410156 27.460938 -26.410156 27.171875 -28.109375 C 26.890625 -29.804688 25.476562 -30.867188 22.9375 -31.296875 C 22.726562 -31.316406 22.523438 -31.328125 22.328125 -31.328125 C 21.390625 -31.328125 19.675781 -30.929688 17.1875 -30.140625 C 17.25 -26.921875 17.484375 -23.1875 17.890625 -18.9375 Z M 43.828125 -7.578125 L -0.796875 -7.578125 L -0.828125 -18.53125 L 8.28125 -18.65625 C 8.070312 -20.976562 7.945312 -22.492188 7.90625 -23.203125 L 7.8125 -26.328125 L 6.078125 -25.5 L 4.125 -36.859375 C 12.34375 -41.660156 19.179688 -44.0625 24.640625 -44.0625 C 26.773438 -44.0625 28.648438 -43.664062 30.265625 -42.875 C 35.472656 -40.269531 38.078125 -35.414062 38.078125 -28.3125 C 38.078125 -24.707031 37.597656 -21.410156 36.640625 -18.421875 L 43.828125 -18.53125 Z M 43.828125 -7.578125 "/></g></g></g><g fill="#ffffff" fill-opacity="1"><g transform="translate(475.526438, 168.347022)"><g><path d="M 24.671875 -18.109375 C 24.910156 -19.453125 25.03125 -20.5 25.03125 -21.25 C 25.03125 -25.570312 22.8125 -27.914062 18.375 -28.28125 C 18.070312 -28.320312 17.757812 -28.34375 17.4375 -28.34375 C 13.5625 -28.34375 11.195312 -25.015625 10.34375 -18.359375 Z M 34.875 -7.484375 L -1.140625 -7.578125 L -1.140625 -18.5625 L 4.359375 -18.5625 L 4.328125 -21.1875 C 4.328125 -33.445312 9.804688 -39.578125 20.765625 -39.578125 L 21.59375 -39.578125 C 29.75 -38.867188 34.003906 -31.863281 34.359375 -18.5625 L 39.515625 -18.59375 L 39.515625 -7.546875 Z M 34.875 -7.484375 "/></g></g></g><g fill="#ffffff" fill-opacity="1"><g transform="translate(513.883792, 168.347022)"><g><path d="M 12.84375 -7.515625 L -0.640625 -7.578125 L -0.671875 -18.5625 L 7.078125 -18.53125 C 7.398438 -23.050781 7.5625 -27.164062 7.5625 -30.875 C 7.5625 -38.832031 7.023438 -46.296875 5.953125 -53.265625 L 17.578125 -53.265625 C 18.335938 -45.867188 18.71875 -36.96875 18.71875 -26.5625 C 18.71875 -22.1875 18.644531 -17.628906 18.5 -12.890625 L 18.5 -12.703125 C 18.5 -9.796875 16.613281 -8.066406 12.84375 -7.515625 Z M 12.84375 -7.515625 "/></g></g></g><g fill="#ffffff" fill-opacity="1"><g transform="translate(533.398405, 168.347022)"><g><path d="M 3.03125 -7.421875 L 3.328125 -19.484375 C 3.429688 -21.847656 3.484375 -24.207031 3.484375 -26.5625 C 3.484375 -36.03125 2.832031 -44.929688 1.53125 -53.265625 L 13.140625 -53.265625 C 13.890625 -45.867188 14.265625 -36.96875 14.265625 -26.5625 C 14.265625 -22.1875 14.191406 -17.628906 14.046875 -12.890625 L 14.046875 -12.703125 C 14.046875 -9.796875 12.164062 -8.066406 8.40625 -7.515625 Z M 3.03125 -7.421875 "/></g></g></g><g fill="#ffffff" fill-opacity="1"><g transform="translate(550.653119, 168.347022)"><g/></g></g><g fill="#ffffff" fill-opacity="1"><g transform="translate(562.868837, 168.347022)"><g><path d="M 20.15625 -4.28125 C 8.039062 -4.375 1.984375 -10.039062 1.984375 -21.28125 C 1.984375 -25.644531 2.65625 -30.367188 4 -35.453125 L 15.78125 -33.171875 C 14.050781 -27.835938 13.1875 -23.4375 13.1875 -19.96875 C 13.1875 -15.289062 15.507812 -12.910156 20.15625 -12.828125 C 25.507812 -12.867188 28.1875 -15.71875 28.1875 -21.375 L 28.1875 -23.609375 L 26.453125 -23.421875 L 25.890625 -34.234375 L 54.484375 -35.828125 L 55.765625 -15.203125 L 43.890625 -12.734375 L 44.28125 -25.59375 L 38.65625 -24.921875 C 38.539062 -11.296875 32.375 -4.414062 20.15625 -4.28125 Z M 14.875 6.5625 C 13.894531 6.5625 13.046875 6.207031 12.328125 5.5 C 11.617188 4.800781 11.265625 3.957031 11.265625 2.96875 C 11.265625 1.988281 11.617188 1.140625 12.328125 0.421875 C 13.046875 -0.285156 13.894531 -0.640625 14.875 -0.640625 C 15.875 -0.640625 16.722656 -0.285156 17.421875 0.421875 C 18.117188 1.140625 18.46875 1.988281 18.46875 2.96875 C 18.46875 3.957031 18.117188 4.800781 17.421875 5.5 C 16.722656 6.207031 15.875 6.5625 14.875 6.5625 Z M 26.109375 6.5625 C 25.128906 6.5625 24.28125 6.207031 23.5625 5.5 C 22.851562 4.800781 22.5 3.957031 22.5 2.96875 C 22.5 1.988281 22.851562 1.140625 23.5625 0.421875 C 24.28125 -0.285156 25.128906 -0.640625 26.109375 -0.640625 C 27.109375 -0.640625 27.957031 -0.285156 28.65625 0.421875 C 29.363281 1.140625 29.71875 1.988281 29.71875 2.96875 C 29.71875 3.957031 29.363281 4.800781 28.65625 5.5 C 27.957031 6.207031 27.109375 6.5625 26.109375 6.5625 Z M 26.109375 6.5625 "/></g></g></g><g fill="#ffffff" fill-opacity="1"><g transform="translate(620.374332, 168.347022)"><g><path d="M 35.03125 -7.578125 C 31.382812 -7.578125 28.3125 -8.335938 25.8125 -9.859375 C 23.46875 -8.335938 20.566406 -7.578125 17.109375 -7.578125 L 1.90625 -7.578125 L 1.984375 -18.328125 C 5.734375 -17.648438 8.910156 -17.3125 11.515625 -17.3125 C 16.785156 -17.3125 19.410156 -18.941406 19.390625 -22.203125 C 19.390625 -25.441406 17.820312 -27.382812 14.6875 -28.03125 C 13.976562 -28.195312 13.21875 -28.28125 12.40625 -28.28125 C 10.25 -28.28125 8.40625 -27.992188 6.875 -27.421875 L 6.78125 -36.859375 C 10.40625 -38.453125 13.816406 -39.25 17.015625 -39.25 C 20.085938 -39.25 22.710938 -38.390625 24.890625 -36.671875 C 28.359375 -33.953125 30.09375 -30.523438 30.09375 -26.390625 C 30.09375 -25.203125 29.9375 -23.910156 29.625 -22.515625 L 29.625 -22.453125 C 29.625 -19.898438 31.394531 -18.601562 34.9375 -18.5625 Z M 35.03125 -7.578125 "/></g></g></g><g fill="#ffffff" fill-opacity="1"><g transform="translate(653.967572, 168.347022)"><g><path d="M 40.765625 -7.578125 L -0.640625 -7.578125 L -0.609375 -18.59375 L 22.140625 -18.53125 C 23.359375 -20.226562 23.96875 -21.726562 23.96875 -23.03125 C 23.96875 -26.832031 21.941406 -28.890625 17.890625 -29.203125 C 17.285156 -29.234375 16.675781 -29.25 16.0625 -29.25 C 12.351562 -29.25 8.972656 -28.671875 5.921875 -27.515625 L 5.734375 -39.21875 C 9.273438 -39.96875 12.960938 -40.34375 16.796875 -40.34375 C 18.242188 -40.34375 19.640625 -40.28125 20.984375 -40.15625 C 30.585938 -38.632812 35.390625 -32.882812 35.390625 -22.90625 C 35.390625 -22.332031 35.1875 -20.882812 34.78125 -18.5625 L 40.734375 -18.5625 Z M 40.765625 -7.578125 "/></g></g></g><g fill="#ffffff" fill-opacity="1"><g transform="translate(693.454876, 168.347022)"><g><path d="M 3.75 -39.796875 C 3.039062 -39.796875 2.296875 -40.082031 1.515625 -40.65625 C 0.640625 -41.28125 0.203125 -42.210938 0.203125 -43.453125 C 0.203125 -44.191406 0.476562 -44.945312 1.03125 -45.71875 C 1.664062 -46.59375 2.601562 -47.03125 3.84375 -47.03125 C 4.570312 -47.03125 5.328125 -46.742188 6.109375 -46.171875 C 6.984375 -45.566406 7.421875 -44.640625 7.421875 -43.390625 C 7.421875 -42.640625 7.15625 -41.898438 6.625 -41.171875 C 5.96875 -40.253906 5.007812 -39.796875 3.75 -39.796875 Z M 14.875 -41.5625 C 14.132812 -41.5625 13.398438 -41.828125 12.671875 -42.359375 C 11.953125 -42.890625 11.515625 -43.65625 11.359375 -44.65625 C 11.316406 -44.832031 11.296875 -45.023438 11.296875 -45.234375 C 11.296875 -45.941406 11.5625 -46.664062 12.09375 -47.40625 C 12.78125 -48.332031 13.734375 -48.796875 14.953125 -48.796875 C 15.691406 -48.796875 16.445312 -48.515625 17.21875 -47.953125 C 18.09375 -47.316406 18.53125 -46.367188 18.53125 -45.109375 C 18.53125 -44.378906 18.253906 -43.625 17.703125 -42.84375 C 17.078125 -41.988281 16.132812 -41.5625 14.875 -41.5625 Z M 3.84375 -7.578125 L -0.859375 -7.578125 L -0.828125 -18.59375 L 2.28125 -18.5 C 4.6875 -18.5 6.210938 -19.296875 6.859375 -20.890625 C 7.066406 -21.378906 7.171875 -21.988281 7.171875 -22.71875 C 7.171875 -24.976562 6.394531 -28.472656 4.84375 -33.203125 L 16.578125 -35.15625 C 17.265625 -31.789062 17.609375 -28.070312 17.609375 -24 C 17.328125 -13.050781 12.738281 -7.578125 3.84375 -7.578125 Z M 3.84375 -7.578125 "/></g></g></g><g fill="#88a1bf" fill-opacity="0.4"><g transform="translate(321.559435, 272.39514)"><g><path d="M 20.703125 1.703125 C 9.390625 1.585938 2.875 -3.53125 1.15625 -13.65625 C 1 -14.851562 0.921875 -15.984375 0.921875 -17.046875 C 0.921875 -25.179688 5.859375 -29.472656 15.734375 -29.921875 L 18.265625 -20.125 L 16.3125 -20.125 C 12.070312 -20.125 9.863281 -18.882812 9.6875 -16.40625 C 10.394531 -12.46875 13.253906 -10.25 18.265625 -9.75 C 19.328125 -9.664062 20.679688 -9.613281 22.328125 -9.59375 C 26.015625 -10.019531 27.859375 -12.6875 27.859375 -17.59375 L 27.796875 -23.90625 C 26.898438 -31.875 25.34375 -40.253906 23.125 -49.046875 L 35.125 -53.015625 C 37.28125 -43.285156 38.519531 -33.289062 38.84375 -23.03125 L 38.84375 -20.828125 C 39.738281 -19.335938 41.625 -18.59375 44.5 -18.59375 L 45.046875 -18.59375 L 45.046875 -7.578125 C 42.210938 -7.578125 39.523438 -8.078125 36.984375 -9.078125 C 33.867188 -1.890625 28.441406 1.703125 20.703125 1.703125 Z M 20.703125 1.703125 "/></g></g></g><g fill="#88a1bf" fill-opacity="0.4"><g transform="translate(365.780333, 272.39514)"><g><path d="M 24.671875 -18.109375 C 24.910156 -19.453125 25.03125 -20.5 25.03125 -21.25 C 25.03125 -25.570312 22.8125 -27.914062 18.375 -28.28125 C 18.070312 -28.320312 17.757812 -28.34375 17.4375 -28.34375 C 13.5625 -28.34375 11.195312 -25.015625 10.34375 -18.359375 Z M 34.875 -7.484375 L -1.140625 -7.578125 L -1.140625 -18.5625 L 4.359375 -18.5625 L 4.328125 -21.1875 C 4.328125 -33.445312 9.804688 -39.578125 20.765625 -39.578125 L 21.59375 -39.578125 C 29.75 -38.867188 34.003906 -31.863281 34.359375 -18.5625 L 39.515625 -18.59375 L 39.515625 -7.546875 Z M 34.875 -7.484375 "/></g></g></g><g fill="#88a1bf" fill-opacity="0.4"><g transform="translate(404.137687, 272.39514)"><g><path d="M 17.890625 -18.9375 C 19.972656 -19.238281 21.378906 -19.492188 22.109375 -19.703125 C 25.773438 -20.554688 27.609375 -22.359375 27.609375 -25.109375 C 27.609375 -25.410156 27.460938 -26.410156 27.171875 -28.109375 C 26.890625 -29.804688 25.476562 -30.867188 22.9375 -31.296875 C 22.726562 -31.316406 22.523438 -31.328125 22.328125 -31.328125 C 21.390625 -31.328125 19.675781 -30.929688 17.1875 -30.140625 C 17.25 -26.921875 17.484375 -23.1875 17.890625 -18.9375 Z M 43.828125 -7.578125 L -0.796875 -7.578125 L -0.828125 -18.53125 L 8.28125 -18.65625 C 8.070312 -20.976562 7.945312 -22.492188 7.90625 -23.203125 L 7.8125 -26.328125 L 6.078125 -25.5 L 4.125 -36.859375 C 12.34375 -41.660156 19.179688 -44.0625 24.640625 -44.0625 C 26.773438 -44.0625 28.648438 -43.664062 30.265625 -42.875 C 35.472656 -40.269531 38.078125 -35.414062 38.078125 -28.3125 C 38.078125 -24.707031 37.597656 -21.410156 36.640625 -18.421875 L 43.828125 -18.53125 Z M 43.828125 -7.578125 "/></g></g></g><g fill="#88a1bf" fill-opacity="0.4"><g transform="translate(447.106479, 272.39514)"><g><path d="M 12.84375 -7.515625 L -0.640625 -7.578125 L -0.671875 -18.5625 L 7.078125 -18.53125 C 7.398438 -23.050781 7.5625 -27.164062 7.5625 -30.875 C 7.5625 -38.832031 7.023438 -46.296875 5.953125 -53.265625 L 17.578125 -53.265625 C 18.335938 -45.867188 18.71875 -36.96875 18.71875 -26.5625 C 18.71875 -22.1875 18.644531 -17.628906 18.5 -12.890625 L 18.5 -12.703125 C 18.5 -9.796875 16.613281 -8.066406 12.84375 -7.515625 Z M 12.84375 -7.515625 "/></g></g></g><g fill="#88a1bf" fill-opacity="0.4"><g transform="translate(466.621092, 272.39514)"><g><path d="M 3.03125 -7.421875 L 3.328125 -19.484375 C 3.429688 -21.847656 3.484375 -24.207031 3.484375 -26.5625 C 3.484375 -36.03125 2.832031 -44.929688 1.53125 -53.265625 L 13.140625 -53.265625 C 13.890625 -45.867188 14.265625 -36.96875 14.265625 -26.5625 C 14.265625 -22.1875 14.191406 -17.628906 14.046875 -12.890625 L 14.046875 -12.703125 C 14.046875 -9.796875 12.164062 -8.066406 8.40625 -7.515625 Z M 3.03125 -7.421875 "/></g></g></g><g fill="#88a1bf" fill-opacity="0.4"><g transform="translate(483.875789, 272.39514)"><g/></g></g><g fill="#88a1bf" fill-opacity="0.4"><g transform="translate(496.091507, 272.39514)"><g><path d="M 20.96875 1.703125 C 9.675781 1.585938 3.171875 -3.53125 1.453125 -13.65625 C 1.296875 -14.851562 1.21875 -15.984375 1.21875 -17.046875 C 1.21875 -25.171875 6.15625 -29.460938 16.03125 -29.921875 L 18.53125 -20.125 L 16.609375 -20.125 C 12.347656 -20.125 10.128906 -18.882812 9.953125 -16.40625 C 10.679688 -12.46875 13.539062 -10.25 18.53125 -9.75 C 19.613281 -9.664062 20.976562 -9.613281 22.625 -9.59375 C 26.289062 -10.019531 28.125 -12.6875 28.125 -17.59375 L 28.0625 -23.90625 C 27.1875 -31.851562 25.628906 -40.234375 23.390625 -49.046875 L 35.390625 -53.015625 C 37.566406 -43.285156 38.804688 -33.289062 39.109375 -23.03125 L 39.109375 -22.078125 C 39.109375 -6.222656 33.0625 1.703125 20.96875 1.703125 Z M 20.96875 1.703125 "/></g></g></g><g fill="#88a1bf" fill-opacity="0.4"><g transform="translate(537.899813, 272.39514)"><g><path d="M 8.921875 -7.515625 C 5.148438 -8.066406 3.265625 -9.796875 3.265625 -12.703125 L 3.265625 -12.890625 C 3.128906 -17.628906 3.0625 -22.1875 3.0625 -26.5625 C 3.0625 -36.96875 3.425781 -45.867188 4.15625 -53.265625 L 15.796875 -53.265625 C 14.472656 -44.671875 13.8125 -35.609375 13.8125 -26.078125 C 13.8125 -24.003906 13.851562 -21.507812 13.9375 -18.59375 L 19.578125 -18.5625 L 19.484375 -7.578125 Z M 8.921875 -7.515625 "/></g></g></g><g fill="#88a1bf" fill-opacity="0.4"><g transform="translate(557.017403, 272.39514)"><g><path d="M 15.78125 6.71875 C 14.832031 6.71875 14.015625 6.375 13.328125 5.6875 C 12.648438 5.007812 12.3125 4.191406 12.3125 3.234375 C 12.3125 2.296875 12.648438 1.484375 13.328125 0.796875 C 14.015625 0.117188 14.832031 -0.21875 15.78125 -0.21875 C 16.71875 -0.21875 17.523438 0.117188 18.203125 0.796875 C 18.890625 1.484375 19.234375 2.296875 19.234375 3.234375 C 19.234375 4.191406 18.890625 5.007812 18.203125 5.6875 C 17.523438 6.375 16.71875 6.71875 15.78125 6.71875 Z M 40.765625 -7.578125 L -0.640625 -7.578125 L -0.609375 -18.59375 L 22.171875 -18.53125 C 23.367188 -20.226562 23.96875 -21.726562 23.96875 -23.03125 C 23.96875 -26.832031 21.941406 -28.890625 17.890625 -29.203125 C 17.285156 -29.234375 16.675781 -29.25 16.0625 -29.25 C 12.351562 -29.25 8.972656 -28.671875 5.921875 -27.515625 L 5.765625 -39.21875 C 9.304688 -39.96875 12.984375 -40.34375 16.796875 -40.34375 C 18.265625 -40.34375 19.671875 -40.28125 21.015625 -40.15625 C 30.597656 -38.632812 35.390625 -32.882812 35.390625 -22.90625 C 35.390625 -22.332031 35.195312 -20.882812 34.8125 -18.5625 L 40.734375 -18.5625 Z M 40.765625 -7.578125 "/></g></g></g><g fill="#88a1bf" fill-opacity="0.4"><g transform="translate(596.290944, 272.39514)"><g><path d="M -1.09375 -7.578125 L -1.03125 -18.5625 L 4.40625 -18.59375 L 4.375 -21.1875 C 4.375 -33.445312 9.847656 -39.578125 20.796875 -39.578125 L 21.625 -39.578125 C 30.132812 -38.847656 34.390625 -31.816406 34.390625 -18.484375 C 34.390625 -14.898438 34.144531 -11.304688 33.65625 -7.703125 Z M 24.71875 -18.109375 C 24.957031 -19.453125 25.078125 -20.5 25.078125 -21.25 C 25.078125 -25.570312 22.859375 -27.914062 18.421875 -28.28125 C 18.117188 -28.320312 17.800781 -28.34375 17.46875 -28.34375 C 13.601562 -28.34375 11.242188 -25.015625 10.390625 -18.359375 Z M 24.71875 -18.109375 "/></g></g></g><g fill="#88a1bf" fill-opacity="0.4"><g transform="translate(632.541091, 272.39514)"><g/></g></g><g fill="#88a1bf" fill-opacity="0.4"><g transform="translate(644.756808, 272.39514)"><g><path d="M 19.484375 -4.28125 C 7.390625 -4.375 1.34375 -10.039062 1.34375 -21.28125 C 1.34375 -25.644531 2.015625 -30.367188 3.359375 -35.453125 L 15.125 -33.171875 C 13.394531 -27.835938 12.53125 -23.4375 12.53125 -19.96875 C 12.53125 -15.289062 14.847656 -12.910156 19.484375 -12.828125 C 24.835938 -12.867188 27.515625 -15.71875 27.515625 -21.375 L 27.515625 -23.609375 L 25.8125 -23.421875 L 25.234375 -34.234375 L 53.75 -35.828125 L 53.96875 -7.578125 L 42.359375 -7.578125 L 43.703125 -25.625 L 38 -24.921875 C 37.875 -11.296875 31.703125 -4.414062 19.484375 -4.28125 Z M 25.4375 6.5625 C 24.46875 6.5625 23.628906 6.207031 22.921875 5.5 C 22.222656 4.800781 21.875 3.957031 21.875 2.96875 C 21.875 1.988281 22.222656 1.140625 22.921875 0.421875 C 23.628906 -0.285156 24.46875 -0.640625 25.4375 -0.640625 C 26.4375 -0.640625 27.289062 -0.285156 28 0.421875 C 28.71875 1.140625 29.078125 1.988281 29.078125 2.96875 C 29.078125 3.957031 28.71875 4.800781 28 5.5 C 27.289062 6.207031 26.4375 6.5625 25.4375 6.5625 Z M 14.203125 6.5625 C 13.222656 6.5625 12.378906 6.207031 11.671875 5.5 C 10.972656 4.800781 10.625 3.957031 10.625 2.96875 C 10.625 1.988281 10.972656 1.140625 11.671875 0.421875 C 12.378906 -0.285156 13.222656 -0.640625 14.203125 -0.640625 C 15.203125 -0.640625 16.054688 -0.285156 16.765625 0.421875 C 17.484375 1.140625 17.84375 1.988281 17.84375 2.96875 C 17.84375 3.957031 17.484375 4.800781 16.765625 5.5 C 16.054688 6.207031 15.203125 6.5625 14.203125 6.5625 Z M 14.203125 6.5625 "/></g></g></g><g fill="#88a1bf" fill-opacity="0.4"><g transform="translate(697.223324, 272.39514)"><g><path d="M 24.390625 -21.890625 L 24.765625 -33.84375 C 22.929688 -34.101562 21.707031 -34.234375 21.09375 -34.234375 C 17.082031 -34.234375 15.078125 -32.347656 15.078125 -28.578125 C 15.078125 -24.960938 18.179688 -22.734375 24.390625 -21.890625 Z M 14.75 -7.265625 C 11.28125 -7.265625 6.257812 -7.359375 -0.3125 -7.546875 L -0.28125 -18.59375 C 2.21875 -18.53125 4.914062 -18.5 7.8125 -18.5 L 12.390625 -18.53125 C 7.765625 -22.019531 5.453125 -25.984375 5.453125 -30.421875 L 5.484375 -31.15625 C 6.203125 -39.6875 12.515625 -43.953125 24.421875 -43.953125 C 27.617188 -43.953125 30.804688 -43.707031 33.984375 -43.21875 C 34.109375 -39.75 34.171875 -36.21875 34.171875 -32.625 C 34.171875 -26.613281 33.957031 -21.582031 33.53125 -17.53125 C 33.019531 -13.6875 32.003906 -11.132812 30.484375 -9.875 C 28.972656 -8.625 27.289062 -7.859375 25.4375 -7.578125 C 23.195312 -7.367188 19.632812 -7.265625 14.75 -7.265625 Z M 23.9375 -49.015625 C 22.976562 -49.015625 22.15625 -49.351562 21.46875 -50.03125 C 20.789062 -50.71875 20.453125 -51.53125 20.453125 -52.46875 C 20.453125 -53.425781 20.789062 -54.242188 21.46875 -54.921875 C 22.15625 -55.609375 22.976562 -55.953125 23.9375 -55.953125 C 24.875 -55.953125 25.679688 -55.609375 26.359375 -54.921875 C 27.046875 -54.242188 27.390625 -53.425781 27.390625 -52.46875 C 27.390625 -51.53125 27.046875 -50.71875 26.359375 -50.03125 C 25.679688 -49.351562 24.875 -49.015625 23.9375 -49.015625 Z M 23.9375 -49.015625 "/></g></g></g><g fill="#ffffff" fill-opacity="1"><g transform="translate(318.795216, 269.630924)"><g><path d="M 20.703125 1.703125 C 9.390625 1.585938 2.875 -3.53125 1.15625 -13.65625 C 1 -14.851562 0.921875 -15.984375 0.921875 -17.046875 C 0.921875 -25.179688 5.859375 -29.472656 15.734375 -29.921875 L 18.265625 -20.125 L 16.3125 -20.125 C 12.070312 -20.125 9.863281 -18.882812 9.6875 -16.40625 C 10.394531 -12.46875 13.253906 -10.25 18.265625 -9.75 C 19.328125 -9.664062 20.679688 -9.613281 22.328125 -9.59375 C 26.015625 -10.019531 27.859375 -12.6875 27.859375 -17.59375 L 27.796875 -23.90625 C 26.898438 -31.875 25.34375 -40.253906 23.125 -49.046875 L 35.125 -53.015625 C 37.28125 -43.285156 38.519531 -33.289062 38.84375 -23.03125 L 38.84375 -20.828125 C 39.738281 -19.335938 41.625 -18.59375 44.5 -18.59375 L 45.046875 -18.59375 L 45.046875 -7.578125 C 42.210938 -7.578125 39.523438 -8.078125 36.984375 -9.078125 C 33.867188 -1.890625 28.441406 1.703125 20.703125 1.703125 Z M 20.703125 1.703125 "/></g></g></g><g fill="#ffffff" fill-opacity="1"><g transform="translate(363.016115, 269.630924)"><g><path d="M 24.671875 -18.109375 C 24.910156 -19.453125 25.03125 -20.5 25.03125 -21.25 C 25.03125 -25.570312 22.8125 -27.914062 18.375 -28.28125 C 18.070312 -28.320312 17.757812 -28.34375 17.4375 -28.34375 C 13.5625 -28.34375 11.195312 -25.015625 10.34375 -18.359375 Z M 34.875 -7.484375 L -1.140625 -7.578125 L -1.140625 -18.5625 L 4.359375 -18.5625 L 4.328125 -21.1875 C 4.328125 -33.445312 9.804688 -39.578125 20.765625 -39.578125 L 21.59375 -39.578125 C 29.75 -38.867188 34.003906 -31.863281 34.359375 -18.5625 L 39.515625 -18.59375 L 39.515625 -7.546875 Z M 34.875 -7.484375 "/></g></g></g><g fill="#ffffff" fill-opacity="1"><g transform="translate(401.373468, 269.630924)"><g><path d="M 17.890625 -18.9375 C 19.972656 -19.238281 21.378906 -19.492188 22.109375 -19.703125 C 25.773438 -20.554688 27.609375 -22.359375 27.609375 -25.109375 C 27.609375 -25.410156 27.460938 -26.410156 27.171875 -28.109375 C 26.890625 -29.804688 25.476562 -30.867188 22.9375 -31.296875 C 22.726562 -31.316406 22.523438 -31.328125 22.328125 -31.328125 C 21.390625 -31.328125 19.675781 -30.929688 17.1875 -30.140625 C 17.25 -26.921875 17.484375 -23.1875 17.890625 -18.9375 Z M 43.828125 -7.578125 L -0.796875 -7.578125 L -0.828125 -18.53125 L 8.28125 -18.65625 C 8.070312 -20.976562 7.945312 -22.492188 7.90625 -23.203125 L 7.8125 -26.328125 L 6.078125 -25.5 L 4.125 -36.859375 C 12.34375 -41.660156 19.179688 -44.0625 24.640625 -44.0625 C 26.773438 -44.0625 28.648438 -43.664062 30.265625 -42.875 C 35.472656 -40.269531 38.078125 -35.414062 38.078125 -28.3125 C 38.078125 -24.707031 37.597656 -21.410156 36.640625 -18.421875 L 43.828125 -18.53125 Z M 43.828125 -7.578125 "/></g></g></g><g fill="#ffffff" fill-opacity="1"><g transform="translate(444.34226, 269.630924)"><g><path d="M 12.84375 -7.515625 L -0.640625 -7.578125 L -0.671875 -18.5625 L 7.078125 -18.53125 C 7.398438 -23.050781 7.5625 -27.164062 7.5625 -30.875 C 7.5625 -38.832031 7.023438 -46.296875 5.953125 -53.265625 L 17.578125 -53.265625 C 18.335938 -45.867188 18.71875 -36.96875 18.71875 -26.5625 C 18.71875 -22.1875 18.644531 -17.628906 18.5 -12.890625 L 18.5 -12.703125 C 18.5 -9.796875 16.613281 -8.066406 12.84375 -7.515625 Z M 12.84375 -7.515625 "/></g></g></g><g fill="#ffffff" fill-opacity="1"><g transform="translate(463.856873, 269.630924)"><g><path d="M 3.03125 -7.421875 L 3.328125 -19.484375 C 3.429688 -21.847656 3.484375 -24.207031 3.484375 -26.5625 C 3.484375 -36.03125 2.832031 -44.929688 1.53125 -53.265625 L 13.140625 -53.265625 C 13.890625 -45.867188 14.265625 -36.96875 14.265625 -26.5625 C 14.265625 -22.1875 14.191406 -17.628906 14.046875 -12.890625 L 14.046875 -12.703125 C 14.046875 -9.796875 12.164062 -8.066406 8.40625 -7.515625 Z M 3.03125 -7.421875 "/></g></g></g><g fill="#ffffff" fill-opacity="1"><g transform="translate(481.11157, 269.630924)"><g/></g></g><g fill="#ffffff" fill-opacity="1"><g transform="translate(493.327288, 269.630924)"><g><path d="M 20.96875 1.703125 C 9.675781 1.585938 3.171875 -3.53125 1.453125 -13.65625 C 1.296875 -14.851562 1.21875 -15.984375 1.21875 -17.046875 C 1.21875 -25.171875 6.15625 -29.460938 16.03125 -29.921875 L 18.53125 -20.125 L 16.609375 -20.125 C 12.347656 -20.125 10.128906 -18.882812 9.953125 -16.40625 C 10.679688 -12.46875 13.539062 -10.25 18.53125 -9.75 C 19.613281 -9.664062 20.976562 -9.613281 22.625 -9.59375 C 26.289062 -10.019531 28.125 -12.6875 28.125 -17.59375 L 28.0625 -23.90625 C 27.1875 -31.851562 25.628906 -40.234375 23.390625 -49.046875 L 35.390625 -53.015625 C 37.566406 -43.285156 38.804688 -33.289062 39.109375 -23.03125 L 39.109375 -22.078125 C 39.109375 -6.222656 33.0625 1.703125 20.96875 1.703125 Z M 20.96875 1.703125 "/></g></g></g><g fill="#ffffff" fill-opacity="1"><g transform="translate(535.135594, 269.630924)"><g><path d="M 8.921875 -7.515625 C 5.148438 -8.066406 3.265625 -9.796875 3.265625 -12.703125 L 3.265625 -12.890625 C 3.128906 -17.628906 3.0625 -22.1875 3.0625 -26.5625 C 3.0625 -36.96875 3.425781 -45.867188 4.15625 -53.265625 L 15.796875 -53.265625 C 14.472656 -44.671875 13.8125 -35.609375 13.8125 -26.078125 C 13.8125 -24.003906 13.851562 -21.507812 13.9375 -18.59375 L 19.578125 -18.5625 L 19.484375 -7.578125 Z M 8.921875 -7.515625 "/></g></g></g><g fill="#ffffff" fill-opacity="1"><g transform="translate(554.253185, 269.630924)"><g><path d="M 15.78125 6.71875 C 14.832031 6.71875 14.015625 6.375 13.328125 5.6875 C 12.648438 5.007812 12.3125 4.191406 12.3125 3.234375 C 12.3125 2.296875 12.648438 1.484375 13.328125 0.796875 C 14.015625 0.117188 14.832031 -0.21875 15.78125 -0.21875 C 16.71875 -0.21875 17.523438 0.117188 18.203125 0.796875 C 18.890625 1.484375 19.234375 2.296875 19.234375 3.234375 C 19.234375 4.191406 18.890625 5.007812 18.203125 5.6875 C 17.523438 6.375 16.71875 6.71875 15.78125 6.71875 Z M 40.765625 -7.578125 L -0.640625 -7.578125 L -0.609375 -18.59375 L 22.171875 -18.53125 C 23.367188 -20.226562 23.96875 -21.726562 23.96875 -23.03125 C 23.96875 -26.832031 21.941406 -28.890625 17.890625 -29.203125 C 17.285156 -29.234375 16.675781 -29.25 16.0625 -29.25 C 12.351562 -29.25 8.972656 -28.671875 5.921875 -27.515625 L 5.765625 -39.21875 C 9.304688 -39.96875 12.984375 -40.34375 16.796875 -40.34375 C 18.265625 -40.34375 19.671875 -40.28125 21.015625 -40.15625 C 30.597656 -38.632812 35.390625 -32.882812 35.390625 -22.90625 C 35.390625 -22.332031 35.195312 -20.882812 34.8125 -18.5625 L 40.734375 -18.5625 Z M 40.765625 -7.578125 "/></g></g></g><g fill="#ffffff" fill-opacity="1"><g transform="translate(593.526725, 269.630924)"><g><path d="M -1.09375 -7.578125 L -1.03125 -18.5625 L 4.40625 -18.59375 L 4.375 -21.1875 C 4.375 -33.445312 9.847656 -39.578125 20.796875 -39.578125 L 21.625 -39.578125 C 30.132812 -38.847656 34.390625 -31.816406 34.390625 -18.484375 C 34.390625 -14.898438 34.144531 -11.304688 33.65625 -7.703125 Z M 24.71875 -18.109375 C 24.957031 -19.453125 25.078125 -20.5 25.078125 -21.25 C 25.078125 -25.570312 22.859375 -27.914062 18.421875 -28.28125 C 18.117188 -28.320312 17.800781 -28.34375 17.46875 -28.34375 C 13.601562 -28.34375 11.242188 -25.015625 10.390625 -18.359375 Z M 24.71875 -18.109375 "/></g></g></g><g fill="#ffffff" fill-opacity="1"><g transform="translate(629.776872, 269.630924)"><g/></g></g><g fill="#ffffff" fill-opacity="1"><g transform="translate(641.99259, 269.630924)"><g><path d="M 19.484375 -4.28125 C 7.390625 -4.375 1.34375 -10.039062 1.34375 -21.28125 C 1.34375 -25.644531 2.015625 -30.367188 3.359375 -35.453125 L 15.125 -33.171875 C 13.394531 -27.835938 12.53125 -23.4375 12.53125 -19.96875 C 12.53125 -15.289062 14.847656 -12.910156 19.484375 -12.828125 C 24.835938 -12.867188 27.515625 -15.71875 27.515625 -21.375 L 27.515625 -23.609375 L 25.8125 -23.421875 L 25.234375 -34.234375 L 53.75 -35.828125 L 53.96875 -7.578125 L 42.359375 -7.578125 L 43.703125 -25.625 L 38 -24.921875 C 37.875 -11.296875 31.703125 -4.414062 19.484375 -4.28125 Z M 25.4375 6.5625 C 24.46875 6.5625 23.628906 6.207031 22.921875 5.5 C 22.222656 4.800781 21.875 3.957031 21.875 2.96875 C 21.875 1.988281 22.222656 1.140625 22.921875 0.421875 C 23.628906 -0.285156 24.46875 -0.640625 25.4375 -0.640625 C 26.4375 -0.640625 27.289062 -0.285156 28 0.421875 C 28.71875 1.140625 29.078125 1.988281 29.078125 2.96875 C 29.078125 3.957031 28.71875 4.800781 28 5.5 C 27.289062 6.207031 26.4375 6.5625 25.4375 6.5625 Z M 14.203125 6.5625 C 13.222656 6.5625 12.378906 6.207031 11.671875 5.5 C 10.972656 4.800781 10.625 3.957031 10.625 2.96875 C 10.625 1.988281 10.972656 1.140625 11.671875 0.421875 C 12.378906 -0.285156 13.222656 -0.640625 14.203125 -0.640625 C 15.203125 -0.640625 16.054688 -0.285156 16.765625 0.421875 C 17.484375 1.140625 17.84375 1.988281 17.84375 2.96875 C 17.84375 3.957031 17.484375 4.800781 16.765625 5.5 C 16.054688 6.207031 15.203125 6.5625 14.203125 6.5625 Z M 14.203125 6.5625 "/></g></g></g><g fill="#ffffff" fill-opacity="1"><g transform="translate(694.459105, 269.630924)"><g><path d="M 24.390625 -21.890625 L 24.765625 -33.84375 C 22.929688 -34.101562 21.707031 -34.234375 21.09375 -34.234375 C 17.082031 -34.234375 15.078125 -32.347656 15.078125 -28.578125 C 15.078125 -24.960938 18.179688 -22.734375 24.390625 -21.890625 Z M 14.75 -7.265625 C 11.28125 -7.265625 6.257812 -7.359375 -0.3125 -7.546875 L -0.28125 -18.59375 C 2.21875 -18.53125 4.914062 -18.5 7.8125 -18.5 L 12.390625 -18.53125 C 7.765625 -22.019531 5.453125 -25.984375 5.453125 -30.421875 L 5.484375 -31.15625 C 6.203125 -39.6875 12.515625 -43.953125 24.421875 -43.953125 C 27.617188 -43.953125 30.804688 -43.707031 33.984375 -43.21875 C 34.109375 -39.75 34.171875 -36.21875 34.171875 -32.625 C 34.171875 -26.613281 33.957031 -21.582031 33.53125 -17.53125 C 33.019531 -13.6875 32.003906 -11.132812 30.484375 -9.875 C 28.972656 -8.625 27.289062 -7.859375 25.4375 -7.578125 C 23.195312 -7.367188 19.632812 -7.265625 14.75 -7.265625 Z M 23.9375 -49.015625 C 22.976562 -49.015625 22.15625 -49.351562 21.46875 -50.03125 C 20.789062 -50.71875 20.453125 -51.53125 20.453125 -52.46875 C 20.453125 -53.425781 20.789062 -54.242188 21.46875 -54.921875 C 22.15625 -55.609375 22.976562 -55.953125 23.9375 -55.953125 C 24.875 -55.953125 25.679688 -55.609375 26.359375 -54.921875 C 27.046875 -54.242188 27.390625 -53.425781 27.390625 -52.46875 C 27.390625 -51.53125 27.046875 -50.71875 26.359375 -50.03125 C 25.679688 -49.351562 24.875 -49.015625 23.9375 -49.015625 Z M 23.9375 -49.015625 "/></g></g></g><g fill="#88a1bf" fill-opacity="0.4"><g transform="translate(407.575791, 373.679042)"><g><path d="M 19.484375 -4.28125 C 7.390625 -4.375 1.34375 -10.039062 1.34375 -21.28125 C 1.34375 -25.644531 2.015625 -30.367188 3.359375 -35.453125 L 15.125 -33.171875 C 13.394531 -27.835938 12.53125 -23.4375 12.53125 -19.96875 C 12.53125 -15.289062 14.847656 -12.910156 19.484375 -12.828125 C 24.835938 -12.867188 27.515625 -15.71875 27.515625 -21.375 L 27.515625 -23.609375 L 25.8125 -23.421875 L 25.234375 -34.234375 L 53.75 -35.828125 L 53.96875 -7.578125 L 42.359375 -7.578125 L 43.703125 -25.625 L 38 -24.921875 C 37.875 -11.296875 31.703125 -4.414062 19.484375 -4.28125 Z M 25.4375 6.5625 C 24.46875 6.5625 23.628906 6.207031 22.921875 5.5 C 22.222656 4.800781 21.875 3.957031 21.875 2.96875 C 21.875 1.988281 22.222656 1.140625 22.921875 0.421875 C 23.628906 -0.285156 24.46875 -0.640625 25.4375 -0.640625 C 26.4375 -0.640625 27.289062 -0.285156 28 0.421875 C 28.71875 1.140625 29.078125 1.988281 29.078125 2.96875 C 29.078125 3.957031 28.71875 4.800781 28 5.5 C 27.289062 6.207031 26.4375 6.5625 25.4375 6.5625 Z M 14.203125 6.5625 C 13.222656 6.5625 12.378906 6.207031 11.671875 5.5 C 10.972656 4.800781 10.625 3.957031 10.625 2.96875 C 10.625 1.988281 10.972656 1.140625 11.671875 0.421875 C 12.378906 -0.285156 13.222656 -0.640625 14.203125 -0.640625 C 15.203125 -0.640625 16.054688 -0.285156 16.765625 0.421875 C 17.484375 1.140625 17.84375 1.988281 17.84375 2.96875 C 17.84375 3.957031 17.484375 4.800781 16.765625 5.5 C 16.054688 6.207031 15.203125 6.5625 14.203125 6.5625 Z M 14.203125 6.5625 "/></g></g></g><g fill="#88a1bf" fill-opacity="0.4"><g transform="translate(460.042299, 373.679042)"><g><path d="M 6.3125 -7.453125 C 3.132812 -7.453125 0.816406 -7.472656 -0.640625 -7.515625 L -0.625 -18.5625 L 7.421875 -18.625 C 6.523438 -21.457031 6.078125 -24.003906 6.078125 -26.265625 C 6.078125 -34.609375 8.617188 -39.71875 13.703125 -41.59375 C 16.960938 -42.789062 20.363281 -43.390625 23.90625 -43.390625 C 26.78125 -43.390625 29.335938 -43.109375 31.578125 -42.546875 L 30.3125 -29.921875 C 27.175781 -30.898438 24.550781 -31.390625 22.4375 -31.390625 C 21.96875 -31.390625 21 -31.265625 19.53125 -31.015625 C 18.070312 -30.773438 17.097656 -29.128906 16.609375 -26.078125 C 16.546875 -25.734375 16.515625 -25.410156 16.515625 -25.109375 C 16.515625 -22.359375 18.367188 -20.546875 22.078125 -19.671875 C 23.109375 -19.460938 24.25 -19.359375 25.5 -19.359375 C 27.957031 -19.359375 30.367188 -19.65625 32.734375 -20.25 L 34.75 -8.40625 C 26.625 -7.769531 17.144531 -7.453125 6.3125 -7.453125 Z M 6.3125 -7.453125 "/></g></g></g><g fill="#88a1bf" fill-opacity="0.4"><g transform="translate(496.078666, 373.679042)"><g><path d="M 20 -18.078125 L 20.25 -30.015625 C 18.738281 -30.328125 17.75 -30.484375 17.28125 -30.484375 C 14.207031 -30.484375 12.671875 -28.609375 12.671875 -24.859375 C 12.671875 -21.273438 15.113281 -19.015625 20 -18.078125 Z M 11.84375 3.484375 L 6.359375 -5.921875 C 8.660156 -6.066406 10.9375 -6.332031 13.1875 -6.71875 C 15.894531 -7.207031 17.960938 -8.03125 19.390625 -9.1875 L 19.390625 -12.4375 L 16.734375 -12.40625 C 6.210938 -12.40625 0.953125 -17.078125 0.953125 -26.421875 L 0.984375 -27.1875 C 1.710938 -35.71875 8.207031 -39.984375 20.46875 -39.984375 C 23.71875 -39.984375 26.992188 -39.738281 30.296875 -39.25 C 30.847656 -34.300781 31.15625 -28.222656 31.21875 -21.015625 C 31.988281 -19.378906 33.867188 -18.5625 36.859375 -18.5625 L 37.015625 -18.5625 L 37.046875 -7.578125 C 34.992188 -7.578125 32.785156 -7.910156 30.421875 -8.578125 C 29.804688 -6.078125 29.222656 -4.367188 28.671875 -3.453125 C 27.109375 -0.804688 21.5 1.503906 11.84375 3.484375 Z M 11.84375 3.484375 "/></g></g></g><g fill="#88a1bf" fill-opacity="0.4"><g transform="translate(532.267734, 373.679042)"><g><path d="M 24.375 -17.109375 L 39.390625 -18.53125 C 39.390625 -26.632812 36.867188 -30.6875 31.828125 -30.6875 C 26.859375 -30.6875 24.375 -26.160156 24.375 -17.109375 Z M 56.828125 -7.578125 C 54.222656 -7.578125 51.953125 -7.898438 50.015625 -8.546875 C 49.046875 -7.960938 48.0625 -7.660156 47.0625 -7.640625 L 19.109375 -7.578125 L -1.46875 -7.578125 L -1.375 -18.59375 L 5.671875 -18.453125 C 4.210938 -35.960938 3.015625 -45.851562 2.078125 -48.125 L 13.46875 -51.921875 C 13.46875 -50.679688 14.269531 -41.070312 15.875 -23.09375 C 21.113281 -35.269531 26.847656 -41.359375 33.078125 -41.359375 L 33.75 -41.359375 C 43.332031 -40.960938 49.007812 -33.96875 50.78125 -20.375 C 51.863281 -19.09375 53.878906 -18.453125 56.828125 -18.453125 Z M 56.828125 -7.578125 "/></g></g></g><g fill="#88a1bf" fill-opacity="0.4"><g transform="translate(587.330086, 373.679042)"><g><path d="M 3.8125 -39.796875 C 3.101562 -39.796875 2.359375 -40.082031 1.578125 -40.65625 C 0.679688 -41.28125 0.234375 -42.210938 0.234375 -43.453125 C 0.234375 -44.191406 0.519531 -44.945312 1.09375 -45.71875 C 1.726562 -46.59375 2.664062 -47.03125 3.90625 -47.03125 C 4.632812 -47.03125 5.390625 -46.742188 6.171875 -46.171875 C 7.046875 -45.566406 7.484375 -44.640625 7.484375 -43.390625 C 7.484375 -42.640625 7.21875 -41.898438 6.6875 -41.171875 C 6.03125 -40.253906 5.070312 -39.796875 3.8125 -39.796875 Z M 14.90625 -41.5625 C 14.1875 -41.5625 13.460938 -41.828125 12.734375 -42.359375 C 12.003906 -42.890625 11.554688 -43.65625 11.390625 -44.65625 C 11.367188 -44.832031 11.359375 -45.023438 11.359375 -45.234375 C 11.359375 -45.941406 11.625 -46.664062 12.15625 -47.40625 C 12.820312 -48.332031 13.773438 -48.796875 15.015625 -48.796875 C 15.753906 -48.796875 16.507812 -48.515625 17.28125 -47.953125 C 18.132812 -47.316406 18.5625 -46.367188 18.5625 -45.109375 C 18.5625 -44.378906 18.285156 -43.625 17.734375 -42.84375 C 17.109375 -41.988281 16.164062 -41.5625 14.90625 -41.5625 Z M 23.0625 -7.578125 C 19.25 -7.578125 16 -8.613281 13.3125 -10.6875 C 10.5625 -8.613281 7.425781 -7.578125 3.90625 -7.578125 L -0.546875 -7.578125 L -0.578125 -18.5625 L 1.890625 -18.53125 C 5.453125 -18.53125 7.234375 -19.925781 7.234375 -22.71875 C 7.234375 -24.976562 6.453125 -28.472656 4.890625 -33.203125 L 16.640625 -35.15625 C 17.335938 -31.789062 17.6875 -28.070312 17.6875 -24 C 17.644531 -23.007812 17.5625 -21.820312 17.4375 -20.4375 C 18.550781 -19.1875 20.269531 -18.5625 22.59375 -18.5625 L 23.03125 -18.5625 Z M 23.0625 -7.578125 "/></g></g></g><g fill="#88a1bf" fill-opacity="0.4"><g transform="translate(609.837558, 373.679042)"><g><path d="M 12.84375 -7.515625 L -0.640625 -7.578125 L -0.671875 -18.5625 L 7.078125 -18.53125 C 7.398438 -23.050781 7.5625 -27.164062 7.5625 -30.875 C 7.5625 -38.832031 7.023438 -46.296875 5.953125 -53.265625 L 17.578125 -53.265625 C 18.335938 -45.867188 18.71875 -36.96875 18.71875 -26.5625 C 18.71875 -22.1875 18.644531 -17.628906 18.5 -12.890625 L 18.5 -12.703125 C 18.5 -9.796875 16.613281 -8.066406 12.84375 -7.515625 Z M 12.84375 -7.515625 "/></g></g></g><g fill="#88a1bf" fill-opacity="0.4"><g transform="translate(629.352172, 373.679042)"><g><path d="M 3.03125 -7.421875 L 3.328125 -19.484375 C 3.429688 -21.847656 3.484375 -24.207031 3.484375 -26.5625 C 3.484375 -36.03125 2.832031 -44.929688 1.53125 -53.265625 L 13.140625 -53.265625 C 13.890625 -45.867188 14.265625 -36.96875 14.265625 -26.5625 C 14.265625 -22.1875 14.191406 -17.628906 14.046875 -12.890625 L 14.046875 -12.703125 C 14.046875 -9.796875 12.164062 -8.066406 8.40625 -7.515625 Z M 3.03125 -7.421875 "/></g></g></g><g fill="#ffffff" fill-opacity="1"><g transform="translate(404.811572, 370.914825)"><g><path d="M 19.484375 -4.28125 C 7.390625 -4.375 1.34375 -10.039062 1.34375 -21.28125 C 1.34375 -25.644531 2.015625 -30.367188 3.359375 -35.453125 L 15.125 -33.171875 C 13.394531 -27.835938 12.53125 -23.4375 12.53125 -19.96875 C 12.53125 -15.289062 14.847656 -12.910156 19.484375 -12.828125 C 24.835938 -12.867188 27.515625 -15.71875 27.515625 -21.375 L 27.515625 -23.609375 L 25.8125 -23.421875 L 25.234375 -34.234375 L 53.75 -35.828125 L 53.96875 -7.578125 L 42.359375 -7.578125 L 43.703125 -25.625 L 38 -24.921875 C 37.875 -11.296875 31.703125 -4.414062 19.484375 -4.28125 Z M 25.4375 6.5625 C 24.46875 6.5625 23.628906 6.207031 22.921875 5.5 C 22.222656 4.800781 21.875 3.957031 21.875 2.96875 C 21.875 1.988281 22.222656 1.140625 22.921875 0.421875 C 23.628906 -0.285156 24.46875 -0.640625 25.4375 -0.640625 C 26.4375 -0.640625 27.289062 -0.285156 28 0.421875 C 28.71875 1.140625 29.078125 1.988281 29.078125 2.96875 C 29.078125 3.957031 28.71875 4.800781 28 5.5 C 27.289062 6.207031 26.4375 6.5625 25.4375 6.5625 Z M 14.203125 6.5625 C 13.222656 6.5625 12.378906 6.207031 11.671875 5.5 C 10.972656 4.800781 10.625 3.957031 10.625 2.96875 C 10.625 1.988281 10.972656 1.140625 11.671875 0.421875 C 12.378906 -0.285156 13.222656 -0.640625 14.203125 -0.640625 C 15.203125 -0.640625 16.054688 -0.285156 16.765625 0.421875 C 17.484375 1.140625 17.84375 1.988281 17.84375 2.96875 C 17.84375 3.957031 17.484375 4.800781 16.765625 5.5 C 16.054688 6.207031 15.203125 6.5625 14.203125 6.5625 Z M 14.203125 6.5625 "/></g></g></g><g fill="#ffffff" fill-opacity="1"><g transform="translate(457.27808, 370.914825)"><g><path d="M 6.3125 -7.453125 C 3.132812 -7.453125 0.816406 -7.472656 -0.640625 -7.515625 L -0.625 -18.5625 L 7.421875 -18.625 C 6.523438 -21.457031 6.078125 -24.003906 6.078125 -26.265625 C 6.078125 -34.609375 8.617188 -39.71875 13.703125 -41.59375 C 16.960938 -42.789062 20.363281 -43.390625 23.90625 -43.390625 C 26.78125 -43.390625 29.335938 -43.109375 31.578125 -42.546875 L 30.3125 -29.921875 C 27.175781 -30.898438 24.550781 -31.390625 22.4375 -31.390625 C 21.96875 -31.390625 21 -31.265625 19.53125 -31.015625 C 18.070312 -30.773438 17.097656 -29.128906 16.609375 -26.078125 C 16.546875 -25.734375 16.515625 -25.410156 16.515625 -25.109375 C 16.515625 -22.359375 18.367188 -20.546875 22.078125 -19.671875 C 23.109375 -19.460938 24.25 -19.359375 25.5 -19.359375 C 27.957031 -19.359375 30.367188 -19.65625 32.734375 -20.25 L 34.75 -8.40625 C 26.625 -7.769531 17.144531 -7.453125 6.3125 -7.453125 Z M 6.3125 -7.453125 "/></g></g></g><g fill="#ffffff" fill-opacity="1"><g transform="translate(493.314447, 370.914825)"><g><path d="M 20 -18.078125 L 20.25 -30.015625 C 18.738281 -30.328125 17.75 -30.484375 17.28125 -30.484375 C 14.207031 -30.484375 12.671875 -28.609375 12.671875 -24.859375 C 12.671875 -21.273438 15.113281 -19.015625 20 -18.078125 Z M 11.84375 3.484375 L 6.359375 -5.921875 C 8.660156 -6.066406 10.9375 -6.332031 13.1875 -6.71875 C 15.894531 -7.207031 17.960938 -8.03125 19.390625 -9.1875 L 19.390625 -12.4375 L 16.734375 -12.40625 C 6.210938 -12.40625 0.953125 -17.078125 0.953125 -26.421875 L 0.984375 -27.1875 C 1.710938 -35.71875 8.207031 -39.984375 20.46875 -39.984375 C 23.71875 -39.984375 26.992188 -39.738281 30.296875 -39.25 C 30.847656 -34.300781 31.15625 -28.222656 31.21875 -21.015625 C 31.988281 -19.378906 33.867188 -18.5625 36.859375 -18.5625 L 37.015625 -18.5625 L 37.046875 -7.578125 C 34.992188 -7.578125 32.785156 -7.910156 30.421875 -8.578125 C 29.804688 -6.078125 29.222656 -4.367188 28.671875 -3.453125 C 27.109375 -0.804688 21.5 1.503906 11.84375 3.484375 Z M 11.84375 3.484375 "/></g></g></g><g fill="#ffffff" fill-opacity="1"><g transform="translate(529.503515, 370.914825)"><g><path d="M 24.375 -17.109375 L 39.390625 -18.53125 C 39.390625 -26.632812 36.867188 -30.6875 31.828125 -30.6875 C 26.859375 -30.6875 24.375 -26.160156 24.375 -17.109375 Z M 56.828125 -7.578125 C 54.222656 -7.578125 51.953125 -7.898438 50.015625 -8.546875 C 49.046875 -7.960938 48.0625 -7.660156 47.0625 -7.640625 L 19.109375 -7.578125 L -1.46875 -7.578125 L -1.375 -18.59375 L 5.671875 -18.453125 C 4.210938 -35.960938 3.015625 -45.851562 2.078125 -48.125 L 13.46875 -51.921875 C 13.46875 -50.679688 14.269531 -41.070312 15.875 -23.09375 C 21.113281 -35.269531 26.847656 -41.359375 33.078125 -41.359375 L 33.75 -41.359375 C 43.332031 -40.960938 49.007812 -33.96875 50.78125 -20.375 C 51.863281 -19.09375 53.878906 -18.453125 56.828125 -18.453125 Z M 56.828125 -7.578125 "/></g></g></g><g fill="#ffffff" fill-opacity="1"><g transform="translate(584.565867, 370.914825)"><g><path d="M 3.8125 -39.796875 C 3.101562 -39.796875 2.359375 -40.082031 1.578125 -40.65625 C 0.679688 -41.28125 0.234375 -42.210938 0.234375 -43.453125 C 0.234375 -44.191406 0.519531 -44.945312 1.09375 -45.71875 C 1.726562 -46.59375 2.664062 -47.03125 3.90625 -47.03125 C 4.632812 -47.03125 5.390625 -46.742188 6.171875 -46.171875 C 7.046875 -45.566406 7.484375 -44.640625 7.484375 -43.390625 C 7.484375 -42.640625 7.21875 -41.898438 6.6875 -41.171875 C 6.03125 -40.253906 5.070312 -39.796875 3.8125 -39.796875 Z M 14.90625 -41.5625 C 14.1875 -41.5625 13.460938 -41.828125 12.734375 -42.359375 C 12.003906 -42.890625 11.554688 -43.65625 11.390625 -44.65625 C 11.367188 -44.832031 11.359375 -45.023438 11.359375 -45.234375 C 11.359375 -45.941406 11.625 -46.664062 12.15625 -47.40625 C 12.820312 -48.332031 13.773438 -48.796875 15.015625 -48.796875 C 15.753906 -48.796875 16.507812 -48.515625 17.28125 -47.953125 C 18.132812 -47.316406 18.5625 -46.367188 18.5625 -45.109375 C 18.5625 -44.378906 18.285156 -43.625 17.734375 -42.84375 C 17.109375 -41.988281 16.164062 -41.5625 14.90625 -41.5625 Z M 23.0625 -7.578125 C 19.25 -7.578125 16 -8.613281 13.3125 -10.6875 C 10.5625 -8.613281 7.425781 -7.578125 3.90625 -7.578125 L -0.546875 -7.578125 L -0.578125 -18.5625 L 1.890625 -18.53125 C 5.453125 -18.53125 7.234375 -19.925781 7.234375 -22.71875 C 7.234375 -24.976562 6.453125 -28.472656 4.890625 -33.203125 L 16.640625 -35.15625 C 17.335938 -31.789062 17.6875 -28.070312 17.6875 -24 C 17.644531 -23.007812 17.5625 -21.820312 17.4375 -20.4375 C 18.550781 -19.1875 20.269531 -18.5625 22.59375 -18.5625 L 23.03125 -18.5625 Z M 23.0625 -7.578125 "/></g></g></g><g fill="#ffffff" fill-opacity="1"><g transform="translate(607.07334, 370.914825)"><g><path d="M 12.84375 -7.515625 L -0.640625 -7.578125 L -0.671875 -18.5625 L 7.078125 -18.53125 C 7.398438 -23.050781 7.5625 -27.164062 7.5625 -30.875 C 7.5625 -38.832031 7.023438 -46.296875 5.953125 -53.265625 L 17.578125 -53.265625 C 18.335938 -45.867188 18.71875 -36.96875 18.71875 -26.5625 C 18.71875 -22.1875 18.644531 -17.628906 18.5 -12.890625 L 18.5 -12.703125 C 18.5 -9.796875 16.613281 -8.066406 12.84375 -7.515625 Z M 12.84375 -7.515625 "/></g></g></g><g fill="#ffffff" fill-opacity="1"><g transform="translate(626.587953, 370.914825)"><g><path d="M 3.03125 -7.421875 L 3.328125 -19.484375 C 3.429688 -21.847656 3.484375 -24.207031 3.484375 -26.5625 C 3.484375 -36.03125 2.832031 -44.929688 1.53125 -53.265625 L 13.140625 -53.265625 C 13.890625 -45.867188 14.265625 -36.96875 14.265625 -26.5625 C 14.265625 -22.1875 14.191406 -17.628906 14.046875 -12.890625 L 14.046875 -12.703125 C 14.046875 -9.796875 12.164062 -8.066406 8.40625 -7.515625 Z M 3.03125 -7.421875 "/></g></g></g></svg>